<svg width="80" height="80" viewBox="0 0 80 80" fill="none" xmlns="http://www.w3.org/2000/svg">
<path d="M36.8904 30.0677C38.1745 26.8663 38.8166 25.2656 39.8598 25.0437C40.134 24.9854 40.4175 24.9854 40.6918 25.0437C41.735 25.2656 42.3771 26.8663 43.6612 30.0677C44.3915 31.8882 44.7566 32.7985 45.4398 33.4176C45.6315 33.5913 45.8395 33.746 46.061 33.8795C46.8507 34.3554 47.8364 34.4437 49.808 34.6203C53.1455 34.9192 54.8143 35.0686 55.3239 36.0201C55.4294 36.2172 55.5012 36.4305 55.5362 36.6513C55.7051 37.7174 54.4784 38.8335 52.0248 41.0657L51.3434 41.6856C50.1963 42.7292 49.6228 43.251 49.2911 43.9022C49.092 44.2929 48.9586 44.7136 48.8961 45.1475C48.7919 45.8709 48.9598 46.6278 49.2957 48.1418L49.4157 48.6827C50.0181 51.3978 50.3193 52.7553 49.9433 53.4226C49.6056 54.022 48.9835 54.4057 48.2963 54.4385C47.5313 54.4751 46.4533 53.5967 44.2974 51.8399C42.8769 50.6825 42.1667 50.1037 41.3783 49.8777C40.6578 49.6711 39.8938 49.6711 39.1733 49.8777C38.3848 50.1037 37.6746 50.6825 36.2542 51.8399C34.0983 53.5967 33.0203 54.4751 32.2552 54.4385C31.568 54.4057 30.946 54.022 30.6082 53.4226C30.2322 52.7553 30.5334 51.3978 31.1358 48.6827L31.2558 48.1418C31.5918 46.6278 31.7597 45.8709 31.6555 45.1475C31.593 44.7136 31.4595 44.2929 31.2605 43.9022C30.9288 43.251 30.3552 42.7292 29.2081 41.6856L28.5268 41.0657C26.0732 38.8335 24.8464 37.7174 25.0154 36.6513C25.0504 36.4305 25.1221 36.2172 25.2277 36.0201C25.7373 35.0686 27.406 34.9192 30.7436 34.6203C32.7151 34.4437 33.7009 34.3554 34.4906 33.8795C34.7121 33.746 34.9201 33.5913 35.1117 33.4176C35.795 32.7985 36.1601 31.8882 36.8904 30.0677Z" fill="#0370E2" stroke="#0370E2" stroke-width="2"/>
<circle cx="40" cy="40" r="40" fill="#0370E2" fill-opacity="0.25"/>
</svg>
