<svg width="80" height="80" viewBox="0 0 80 80" fill="none" xmlns="http://www.w3.org/2000/svg">
<circle cx="40" cy="40" r="40" fill="#0370E2" fill-opacity="0.25"/>
<path d="M50.577 33.5257L28.6581 26.2194C28.3578 26.1193 28.2076 26.0692 28.1038 26.144C28 26.2189 28 26.3772 28 26.6937V42L50.577 34.4743C51.1653 34.2782 51.4594 34.1802 51.4594 34C51.4594 33.8198 51.1653 33.7218 50.577 33.5257Z" fill="#0370E2"/>
<path d="M28 42V26.6937C28 26.3772 28 26.2189 28.1038 26.144C28.2076 26.0692 28.3578 26.1193 28.6581 26.2194L50.577 33.5257C51.1653 33.7218 51.4594 33.8198 51.4594 34C51.4594 34.1802 51.1653 34.2782 50.577 34.4743L28 42ZM28 42V52V54" stroke="#0370E2" stroke-width="2" stroke-linecap="round"/>
</svg>
