<svg width="80" height="80" viewBox="0 0 80 80" fill="none" xmlns="http://www.w3.org/2000/svg">
<path fill-rule="evenodd" clip-rule="evenodd" d="M20.9111 38.2328C23.0622 34.4685 29.1115 26 40 26C50.8885 26 56.9378 34.4685 59.0889 38.2328C59.5302 39.005 59.7509 39.3912 59.7266 39.9672C59.7023 40.5432 59.4429 40.9196 58.924 41.6724C56.3636 45.3871 49.4122 54 40 54C30.5878 54 23.6364 45.3871 21.076 41.6724C20.5571 40.9196 20.2977 40.5432 20.2734 39.9672C20.2491 39.3912 20.4698 39.005 20.9111 38.2328ZM40 48C44.4183 48 48 44.4183 48 40C48 35.5817 44.4183 32 40 32C35.5817 32 32 35.5817 32 40C32 44.4183 35.5817 48 40 48Z" fill="#0370E2"/>
<circle cx="40" cy="40" r="40" fill="#0370E2" fill-opacity="0.25"/>
</svg>
