<svg width="520" height="739" viewBox="0 0 520 739" fill="none" xmlns="http://www.w3.org/2000/svg">
<g clip-path="url(#clip0_110_4757)">
<g opacity="0.7">
<path opacity="0.7" d="M223.025 167.715L154.568 280.157L155.088 276.278L223.025 167.715Z" fill="#A3A3A3"/>
<path opacity="0.7" d="M217.268 333.686L219.947 311.854L284.227 209.62L217.268 333.686Z" fill="#797979"/>
<path opacity="0.7" d="M154.568 280.157L136.914 363.22L155.088 276.279L154.568 280.157Z" fill="#6B6B6B"/>
<path opacity="0.7" d="M137.245 363.287L136.582 363.148L154.751 276.207L155.419 276.323L154.894 280.229L137.245 363.287Z" fill="#6B6B6B"/>
<path opacity="0.7" d="M234.568 170.437L154.568 280.157L223.025 167.715L234.568 170.437Z" fill="#CBCBCB"/>
<path opacity="0.7" d="M223.025 167.715L292.924 61.2532L234.568 170.437L223.025 167.715Z" fill="#CBCBCB"/>
<path opacity="0.7" d="M234.568 170.437L150.54 324.945L154.568 280.157L234.568 170.437Z" fill="#9F9F9F"/>
<path opacity="0.7" d="M154.568 280.157L150.54 324.945L136.914 363.22L154.568 280.157Z" fill="#6B6B6B"/>
<path opacity="0.7" d="M137.229 363.331L136.582 363.148L154.237 280.085L154.905 280.19L150.872 325.006V325.044L137.229 363.331ZM153.723 285.756L138.306 358.296L150.209 324.867L153.723 285.756Z" fill="#6B6B6B"/>
<path opacity="0.7" d="M219.947 311.854L190.142 307.942L267.639 189.525L219.947 311.854Z" fill="#414141"/>
<path opacity="0.7" d="M267.639 189.525L190.142 307.942L150.54 324.945L267.639 189.525Z" fill="#7A7A7A"/>
<path opacity="0.7" d="M268.247 188.595L151.153 324.015L235.182 169.507L268.247 188.595Z" fill="#7F7F7F"/>
<path opacity="0.7" d="M288.653 205.902L219.948 311.854L267.639 189.525L288.653 205.902Z" fill="#4E4E4E"/>
<path opacity="0.7" d="M219.947 311.854L217.268 333.686L214.836 351.895L219.947 311.854Z" fill="#505050"/>
<path opacity="0.7" d="M215.168 351.939L214.499 351.85L219.61 311.81L220.279 311.898L217.605 333.725L215.168 351.939Z" fill="#505050"/>
<path opacity="0.7" d="M217.268 333.686L228.341 384.278L214.836 351.895L217.268 333.686Z" fill="#787878"/>
<path opacity="0.7" d="M219.947 311.854L214.836 351.895L190.142 307.943L219.947 311.854Z" fill="#555555"/>
<path opacity="0.7" d="M234.568 170.437L345.434 71.0186L267.639 189.525L234.568 170.437Z" fill="#7F7F7F"/>
<path opacity="0.7" d="M345.434 71.0186L366.443 94.815L288.653 205.902L345.434 71.0186Z" fill="#777777"/>
<path opacity="0.7" d="M267.639 189.525L345.434 71.0186L288.653 205.902L267.639 189.525Z" fill="#515151"/>
<path opacity="0.7" d="M400.547 73.8237L418.555 64.844L366.443 94.815L400.547 73.8237Z" fill="#494949"/>
<path opacity="0.7" d="M345.434 71.0186L400.547 73.8237L366.443 94.815L345.434 71.0186Z" fill="#6F6F6F"/>
<path opacity="0.7" d="M292.924 61.2532L338.472 24.7646L387.429 5.41656L292.924 61.2532Z" fill="#CBCBCB"/>
<path opacity="0.7" d="M234.568 170.437L387.429 5.41656L345.434 71.0185L234.568 170.437Z" fill="#828282"/>
<path opacity="0.7" d="M292.924 61.2532L387.429 5.41656L234.568 170.437L292.924 61.2532Z" fill="#B2B2B2"/>
<path opacity="0.7" d="M214.836 351.895L193.822 358.423L190.142 307.943L214.836 351.895Z" fill="#4F4F4F"/>
<path opacity="0.7" d="M190.142 307.943L193.822 358.423L150.54 324.945L190.142 307.943Z" fill="#7F7F7F"/>
<path opacity="0.7" d="M194.215 359.154L149.877 324.851L190.446 307.433L194.215 359.154ZM151.203 325.028L193.43 357.671L189.838 308.429L151.203 325.028Z" fill="#7F7F7F"/>
<path opacity="0.7" d="M136.914 363.22L185.943 425.912L148.932 396.677L136.914 363.22Z" fill="#1A1A1A"/>
<path opacity="0.7" d="M150.54 324.945L185.943 425.912L136.914 363.22L150.54 324.945Z" fill="#6E6E6E"/>
<path opacity="0.7" d="M345.434 71.0185L403.592 43.0338L400.547 73.8236L345.434 71.0185Z" fill="#8E8E8E"/>
<path opacity="0.7" d="M387.429 5.41656L403.592 43.0338L345.434 71.0185L387.429 5.41656Z" fill="#9E9E9E"/>
<path opacity="0.7" d="M403.592 43.0338L436.889 91.108L400.547 73.8236L403.592 43.0338Z" fill="#9B9B9B"/>
<path opacity="0.7" d="M409.266 0.210236L457.218 2.26289L387.429 5.41656L409.266 0.210236Z" fill="#666666"/>
<path opacity="0.7" d="M150.54 324.945L226.352 396.279L185.943 425.912L150.54 324.945Z" fill="#878787"/>
<path opacity="0.7" d="M193.822 358.423L226.352 396.279L150.54 324.945L193.822 358.423Z" fill="#A2A2A2"/>
<path opacity="0.7" d="M387.429 5.41655L457.218 2.26288L472.259 33.9379L387.429 5.41655Z" fill="#464646"/>
<path opacity="0.7" d="M507.7 43.1334L472.259 33.9379L457.218 2.26288L507.7 43.1334Z" fill="#363636"/>
<path opacity="0.7" d="M387.429 5.41656L472.259 33.938L436.773 99.5123L387.429 5.41656Z" fill="#858585"/>
<path opacity="0.7" d="M387.429 5.41656L436.773 99.5123L403.592 43.0338L387.429 5.41656Z" fill="#ADADAD"/>
<path opacity="0.7" d="M455.941 107.806L355.574 229.798L436.773 99.5122L455.941 107.806Z" fill="#ADADAD"/>
<path opacity="0.7" d="M472.259 33.9379L455.941 107.806L436.773 99.5122L472.259 33.9379Z" fill="#8E8E8E"/>
<path opacity="0.7" d="M519.79 87.6224L501.478 150.901L507.7 43.1334L519.79 87.6224Z" fill="#4F4F4F"/>
<path opacity="0.7" d="M507.7 43.1334L501.478 150.901L472.259 33.9379L507.7 43.1334Z" fill="#353535"/>
<path opacity="0.7" d="M519.79 87.6223L503.412 161.108L501.478 150.901L519.79 87.6223Z" fill="#666666"/>
<path opacity="0.7" d="M503.412 161.108L427.402 274.076L501.478 150.901L503.412 161.108Z" fill="#717171"/>
<path opacity="0.7" d="M455.941 107.806L384.932 241.926L355.574 229.798L455.941 107.806Z" fill="#909090"/>
<path opacity="0.7" d="M501.478 150.901L427.402 274.076L414.831 261.019L501.478 150.901Z" fill="#6B6B6B"/>
<path opacity="0.7" d="M472.259 33.9379L487.134 138.568L455.941 107.806L472.259 33.9379Z" fill="#5A5A5A"/>
<path opacity="0.7" d="M501.478 150.901L414.831 261.019L487.134 138.568L501.478 150.901Z" fill="#444444"/>
<path opacity="0.7" d="M501.478 150.901L487.134 138.568L472.259 33.9379L501.478 150.901Z" fill="#020202"/>
<path opacity="0.7" d="M487.134 138.568L384.932 241.926L455.941 107.806L487.134 138.568Z" fill="#5D5D5D"/>
<path opacity="0.7" d="M487.134 138.568L414.831 261.019L384.932 241.925L487.134 138.568Z" fill="#010101"/>
<path opacity="0.7" d="M214.836 351.895L248.659 368.2L193.822 358.423L214.836 351.895Z" fill="#969696"/>
<path opacity="0.7" d="M271.181 398.348L215.941 512.633L268.07 396.124L271.181 398.348Z" fill="#ABABAB"/>
<path opacity="0.7" d="M271.977 354.014L265.744 354.429L249.239 335.153L271.977 354.014Z" fill="#808080"/>
<path opacity="0.7" d="M271.977 354.014L268.07 396.124L265.744 354.429L271.977 354.014Z" fill="#808080"/>
<path opacity="0.7" d="M271.977 354.014L271.181 398.348L268.07 396.124L271.977 354.014Z" fill="#7F7F7F"/>
<path opacity="0.7" d="M271.148 398.685C271.088 398.682 271.03 398.661 270.982 398.624L267.877 396.411C267.828 396.378 267.789 396.332 267.764 396.279C267.738 396.225 267.728 396.166 267.733 396.107L271.64 353.997C271.654 353.914 271.698 353.839 271.764 353.787C271.83 353.734 271.913 353.708 271.997 353.713C272.081 353.718 272.16 353.753 272.22 353.813C272.279 353.872 272.315 353.952 272.319 354.036L271.518 398.359C271.518 398.421 271.5 398.482 271.467 398.535C271.434 398.588 271.387 398.631 271.33 398.658C271.275 398.688 271.21 398.698 271.148 398.685ZM268.429 395.958L270.855 397.7L271.474 363.099L268.429 395.958Z" fill="#7F7F7F"/>
<path opacity="0.7" d="M325.57 295.04L334.56 313.863L347.949 342.428L325.57 295.04Z" fill="#505050"/>
<path opacity="0.7" d="M347.915 342.766C347.857 342.76 347.802 342.739 347.754 342.705C347.706 342.671 347.669 342.625 347.645 342.572L325.271 295.184C325.241 295.104 325.241 295.016 325.273 294.937C325.304 294.858 325.365 294.794 325.442 294.757C325.519 294.721 325.607 294.715 325.688 294.741C325.769 294.767 325.837 294.822 325.879 294.896L334.853 313.708L348.247 342.273C348.285 342.355 348.288 342.449 348.257 342.534C348.226 342.619 348.163 342.688 348.081 342.727C348.029 342.752 347.973 342.765 347.915 342.766Z" fill="#505050"/>
<path opacity="0.7" d="M286.658 393.385L271.181 398.348L271.977 354.014L286.658 393.385Z" fill="#6B6B6B"/>
<path opacity="0.7" d="M271.148 398.685C271.087 398.679 271.028 398.658 270.977 398.624C270.933 398.591 270.898 398.549 270.874 398.5C270.85 398.451 270.838 398.397 270.839 398.342L271.64 354.008C271.64 353.928 271.668 353.851 271.72 353.791C271.772 353.73 271.843 353.689 271.922 353.676C271.999 353.663 272.079 353.678 272.148 353.717C272.216 353.756 272.269 353.818 272.297 353.892L286.979 393.269C286.996 393.311 287.006 393.356 287.006 393.401C287.006 393.447 286.996 393.492 286.979 393.534C286.935 393.616 286.862 393.679 286.774 393.711L271.303 398.691C271.251 398.699 271.199 398.697 271.148 398.685ZM272.286 355.806L271.529 397.855L286.227 393.169L272.286 355.806Z" fill="#6B6B6B"/>
<path opacity="0.7" d="M271.181 398.348L225.147 514.53L215.941 512.633L271.181 398.348Z" fill="#A8A8A8"/>
<path opacity="0.7" d="M286.658 393.385L225.147 514.53L271.181 398.348L286.658 393.385Z" fill="#929292"/>
<path opacity="0.7" d="M347.949 342.428L353.535 393.319L338.892 421.89L347.949 342.428Z" fill="#666666"/>
<path opacity="0.7" d="M353.535 393.319L346.048 427.732L338.892 421.89L353.535 393.319Z" fill="#737373"/>
<path opacity="0.7" d="M325.57 295.04L347.949 342.428L336.223 332.807L325.57 295.04Z" fill="#1D1D1D"/>
<path opacity="0.7" d="M347.916 342.766C347.849 342.758 347.787 342.734 347.733 342.694L336.008 333.072C335.955 333.029 335.917 332.972 335.897 332.906L325.244 295.14C325.221 295.058 325.229 294.97 325.268 294.894C325.307 294.818 325.374 294.759 325.454 294.73C325.533 294.701 325.621 294.703 325.699 294.734C325.778 294.766 325.842 294.826 325.879 294.902L348.258 342.29C348.289 342.36 348.297 342.438 348.279 342.512C348.261 342.586 348.218 342.652 348.159 342.699C348.089 342.753 348.002 342.777 347.916 342.766ZM336.511 332.613L347.009 341.211L327.012 298.863L336.511 332.613Z" fill="#1D1D1D"/>
<path opacity="0.7" d="M347.949 342.428L338.892 421.89L336.223 332.807L347.949 342.428Z" fill="#535353"/>
<path opacity="0.7" d="M168.438 629.329L215.941 512.633L225.147 514.53L168.438 629.329Z" fill="#ACACAC"/>
<path opacity="0.7" d="M160.298 634.967L215.941 512.633L168.438 629.329L160.298 634.967Z" fill="#B3B3B3"/>
<path opacity="0.7" d="M304.788 401.811L225.147 514.53L286.658 393.385L304.788 401.811Z" fill="#535353"/>
<path opacity="0.7" d="M294.284 548.302L289.891 543.992L346.048 427.732L294.284 548.302Z" fill="#696969"/>
<path opacity="0.7" d="M289.891 543.992L294.284 548.302L240.343 668.529L289.891 543.992Z" fill="#717171"/>
<path opacity="0.7" d="M346.048 427.732L289.891 543.992L338.892 421.89L346.048 427.732Z" fill="#717171"/>
<path opacity="0.7" d="M117.9 315.273L139.776 289.845L156.696 273.141L117.9 315.273Z" fill="#B0B0B0"/>
<path opacity="0.7" d="M325.57 295.04L336.223 332.807L300.655 282.143L325.57 295.04Z" fill="#040404"/>
<path opacity="0.7" d="M301.213 271.166L325.57 295.04L300.655 282.143L301.213 271.166Z" fill="#363636"/>
<path opacity="0.7" d="M253.681 325.443L271.977 354.014L249.239 335.153L253.681 325.443Z" fill="#4E4E4E"/>
<path opacity="0.7" d="M253.681 325.443L249.239 335.153L221.633 330.859L253.681 325.443Z" fill="#4A4A4A"/>
<path opacity="0.7" d="M290.233 336.099L286.658 393.385L271.977 354.014L290.233 336.099Z" fill="#6B6B6B"/>
<path opacity="0.7" d="M286.625 393.722C286.563 393.717 286.503 393.694 286.453 393.655C286.403 393.617 286.365 393.566 286.343 393.507L271.662 354.13C271.638 354.069 271.632 354.002 271.646 353.938C271.66 353.874 271.692 353.816 271.739 353.77L289.974 335.855C290.022 335.807 290.084 335.776 290.151 335.764C290.218 335.752 290.288 335.761 290.35 335.789C290.412 335.818 290.465 335.865 290.5 335.924C290.536 335.983 290.553 336.052 290.548 336.121L287.001 393.407C286.995 393.485 286.963 393.559 286.91 393.617C286.857 393.674 286.786 393.711 286.708 393.722H286.625ZM272.375 354.097L286.421 391.769L289.841 336.945L272.375 354.097Z" fill="#6B6B6B"/>
<path opacity="0.7" d="M290.233 336.099L304.788 401.811L286.658 393.385L290.233 336.099Z" fill="#6B6B6B"/>
<path opacity="0.7" d="M304.755 402.149C304.716 402.148 304.679 402.139 304.644 402.121L286.515 393.695C286.454 393.664 286.403 393.616 286.369 393.557C286.335 393.498 286.318 393.431 286.321 393.363L289.896 336.077C289.901 335.996 289.936 335.919 289.992 335.861C290.049 335.803 290.125 335.768 290.206 335.761C290.288 335.755 290.369 335.779 290.435 335.827C290.5 335.876 290.547 335.947 290.565 336.027L305.12 401.739C305.133 401.801 305.129 401.866 305.107 401.926C305.086 401.985 305.048 402.038 304.998 402.077C304.964 402.105 304.925 402.125 304.884 402.137C304.842 402.15 304.798 402.154 304.755 402.149ZM287.012 393.175L304.307 401.214L290.421 338.517L287.012 393.175Z" fill="#6B6B6B"/>
<path opacity="0.7" d="M290.233 336.099L271.977 354.014L253.681 325.443L290.233 336.099Z" fill="#4A4A4A"/>
<path opacity="0.7" d="M238.596 253.389L301.213 271.166L300.655 282.143L238.596 253.389Z" fill="#4A4A4A"/>
<path opacity="0.7" d="M220.738 248.67L268.816 257.356L238.596 253.389L220.738 248.67Z" fill="#767676"/>
<path opacity="0.7" d="M268.816 257.356L301.213 271.166L238.596 253.389L268.816 257.356Z" fill="#4C4C4C"/>
<path opacity="0.7" d="M229.612 324.496L253.681 325.443L221.633 330.859L229.612 324.496Z" fill="#636363"/>
<path opacity="0.7" d="M304.788 401.811L243.857 521.407L225.147 514.53L304.788 401.811Z" fill="#636363"/>
<path opacity="0.7" d="M300.655 282.143L336.223 332.807L300.428 312.856L300.655 282.143Z" fill="#030303"/>
<path opacity="0.7" d="M300.428 312.856L304.788 401.811L290.233 336.099L300.428 312.856Z" fill="#414141"/>
<path opacity="0.7" d="M304.755 402.149C304.684 402.142 304.617 402.114 304.564 402.067C304.51 402.021 304.472 401.958 304.456 401.889L289.902 336.171C289.88 336.102 289.88 336.029 289.902 335.96L300.091 312.723C300.123 312.654 300.177 312.598 300.245 312.563C300.313 312.528 300.39 312.517 300.464 312.531C300.539 312.545 300.607 312.583 300.657 312.64C300.708 312.697 300.738 312.769 300.743 312.844L305.103 401.8C305.108 401.885 305.08 401.969 305.026 402.035C304.972 402.101 304.895 402.143 304.81 402.154L304.755 402.149ZM290.587 336.132L304.252 397.833L300.158 314.288L290.587 336.132Z" fill="#414141"/>
<path opacity="0.7" d="M300.428 312.856L336.223 332.807L304.788 401.811L300.428 312.856Z" fill="#5E5E5E"/>
<path opacity="0.7" d="M304.755 402.149H304.722C304.647 402.132 304.58 402.092 304.53 402.034C304.48 401.976 304.451 401.904 304.445 401.828L300.086 312.872C300.082 312.812 300.095 312.751 300.123 312.698C300.152 312.644 300.194 312.599 300.246 312.568C300.298 312.538 300.357 312.522 300.417 312.522C300.477 312.522 300.536 312.538 300.588 312.568L336.389 332.519C336.463 332.561 336.518 332.629 336.545 332.71C336.571 332.791 336.567 332.878 336.533 332.956L305.092 401.955C305.065 402.02 305.017 402.074 304.956 402.109C304.895 402.144 304.824 402.158 304.755 402.149ZM300.793 313.448L305.059 400.4L335.787 332.951L300.793 313.448Z" fill="#5E5E5E"/>
<path opacity="0.7" d="M336.223 332.807L274.53 535.361L304.788 401.811L336.223 332.807Z" fill="#020202"/>
<path opacity="0.7" d="M289.891 543.992L279.182 544.335L274.53 535.361L289.891 543.992Z" fill="#6B6B6B"/>
<path opacity="0.7" d="M279.155 544.673C279.098 544.668 279.043 544.648 278.996 544.616C278.948 544.585 278.91 544.541 278.884 544.49L274.226 535.522C274.194 535.456 274.183 535.381 274.195 535.309C274.207 535.237 274.241 535.17 274.292 535.118C274.345 535.067 274.413 535.035 274.486 535.027C274.558 535.018 274.632 535.032 274.695 535.068L290.062 543.699C290.125 543.737 290.174 543.794 290.202 543.862C290.23 543.93 290.235 544.005 290.217 544.077C290.199 544.148 290.159 544.211 290.102 544.258C290.045 544.305 289.975 544.332 289.902 544.335L279.193 544.673H279.155ZM275.353 536.213L279.387 543.987L288.664 543.693L275.353 536.213Z" fill="#6B6B6B"/>
<path opacity="0.7" d="M338.892 421.89L289.891 543.992L274.53 535.361L338.892 421.89Z" fill="#3E3E3E"/>
<path opacity="0.7" d="M274.53 535.361L243.857 521.407L304.788 401.811L274.53 535.361Z" fill="#6A6A6A"/>
<path opacity="0.7" d="M338.892 421.89L274.53 535.361L336.223 332.807L338.892 421.89Z" fill="#343434"/>
<path opacity="0.7" d="M130.775 654.542L168.438 629.329L184.385 636.948L130.775 654.542Z" fill="#ADADAD"/>
<path opacity="0.7" d="M168.438 629.33L225.147 514.53L184.385 636.948L168.438 629.33Z" fill="#A9A9A9"/>
<path opacity="0.7" d="M225.147 514.53L243.857 521.408L184.385 636.948L225.147 514.53Z" fill="#636363"/>
<path opacity="0.7" d="M232.767 663.273L240.343 668.529L219.738 697.748L232.767 663.273Z" fill="#636363"/>
<path opacity="0.7" d="M232.767 663.273L289.891 543.992L240.343 668.529L232.767 663.273Z" fill="#6D6D6D"/>
<path opacity="0.7" d="M238.596 253.389L300.655 282.143L246.128 271.482L238.596 253.389Z" fill="#555555"/>
<path opacity="0.7" d="M246.128 271.482L300.655 282.143L300.428 312.856L246.128 271.482Z" fill="#141414"/>
<path opacity="0.7" d="M156.668 273.136L220.716 248.67L175.759 273.866L156.668 273.136Z" fill="#CBCBCB"/>
<path opacity="0.7" d="M220.738 248.67L238.596 253.389L175.787 273.866L220.738 248.67Z" fill="#8B8B8B"/>
<path opacity="0.7" d="M175.787 273.866L238.596 253.389L246.128 271.482L175.787 273.866Z" fill="#747474"/>
<path opacity="0.7" d="M130.775 654.542L184.385 636.948L148.374 666.847L130.775 654.542Z" fill="#AAAAAA"/>
<path opacity="0.7" d="M246.128 271.482L300.428 312.856L234.751 298.636L246.128 271.482Z" fill="#010101"/>
<path opacity="0.7" d="M234.751 298.636L290.233 336.099L253.681 325.443L234.751 298.636Z" fill="#141414"/>
<path opacity="0.7" d="M234.751 298.636L253.681 325.443L229.612 324.496L234.751 298.636Z" fill="#4B4B4B"/>
<path opacity="0.7" d="M234.751 298.636L300.428 312.856L290.233 336.099L234.751 298.636Z" fill="#010101"/>
<path opacity="0.7" d="M213.085 652.329L243.288 521.352L273.96 535.306L213.085 652.329Z" fill="#727272"/>
<path opacity="0.7" d="M148.374 666.847L184.385 636.948L213.654 652.385L148.374 666.847Z" fill="#757575"/>
<path opacity="0.7" d="M184.385 636.948L243.857 521.407L213.654 652.385L184.385 636.948Z" fill="#6A6A6A"/>
<path opacity="0.7" d="M213.654 652.385L274.53 535.361L289.891 543.992L213.654 652.385Z" fill="#3E3E3E"/>
<path opacity="0.7" d="M213.654 652.385L289.891 543.992L232.767 663.273L213.654 652.385Z" fill="#191919"/>
<path opacity="0.7" d="M65.4842 435.373L6.69153 558.377L64.042 437.276L65.4842 435.373Z" fill="#878787"/>
<path opacity="0.7" d="M6.65838 558.715C6.62001 558.71 6.58271 558.699 6.54786 558.682C6.50734 558.663 6.47099 558.636 6.44093 558.603C6.41088 558.57 6.38772 558.531 6.3728 558.489C6.35789 558.446 6.35152 558.402 6.35406 558.357C6.35661 558.312 6.36801 558.268 6.38762 558.228L63.7381 437.132L65.2134 435.168C65.2678 435.117 65.3377 435.085 65.4122 435.077C65.4867 435.07 65.5615 435.088 65.6248 435.128C65.6882 435.168 65.7364 435.228 65.762 435.298C65.7875 435.369 65.7889 435.445 65.766 435.517L7.00097 558.521C6.96943 558.584 6.92004 558.636 6.85905 558.67C6.79805 558.705 6.72821 558.72 6.65838 558.715Z" fill="#878787"/>
<path opacity="0.7" d="M64.042 437.276L117.9 315.273L65.4842 435.373L64.042 437.276Z" fill="#878787"/>
<path opacity="0.7" d="M64.0088 437.642C63.9601 437.637 63.913 437.622 63.8707 437.597C63.8 437.554 63.7473 437.486 63.722 437.407C63.6967 437.328 63.7004 437.242 63.7325 437.166L117.591 315.163C117.628 315.081 117.696 315.018 117.78 314.986C117.863 314.953 117.956 314.956 118.038 314.991C118.121 315.028 118.186 315.095 118.219 315.179C118.252 315.263 118.25 315.356 118.215 315.439L65.7936 435.506L64.3127 437.481C64.2815 437.533 64.2367 437.575 64.1831 437.604C64.1296 437.632 64.0693 437.645 64.0088 437.642Z" fill="#878787"/>
<path opacity="0.7" d="M117.9 315.273L156.696 273.141L130.466 315.118L117.9 315.273Z" fill="#B2B2B2"/>
<path opacity="0.7" d="M65.4841 435.373L117.9 315.273L130.465 315.118L65.4841 435.373Z" fill="#B3B3B3"/>
<path opacity="0.7" d="M156.696 273.141L175.787 273.866L130.466 315.118L156.696 273.141Z" fill="#AEAEAE"/>
<path opacity="0.7" d="M192.679 342.578L229.612 324.496L194.834 354.644L192.679 342.578Z" fill="#6C6C6C"/>
<path opacity="0.7" d="M192.679 342.578L234.751 298.636L229.612 324.496L192.679 342.578Z" fill="#4B4B4B"/>
<path opacity="0.7" d="M140.682 470.412L192.679 342.578L194.834 354.644L140.682 470.412Z" fill="#6F6F6F"/>
<path opacity="0.7" d="M183.114 713.184L232.767 663.273L219.737 697.748L183.114 713.184Z" fill="#3E3E3E"/>
<path opacity="0.7" d="M183.114 713.184L219.738 697.748L182.898 726.38L183.114 713.184Z" fill="#515151"/>
<path opacity="0.7" d="M65.4234 726.712L116.624 738.795L86.6142 734.541L65.4234 726.712Z" fill="#323232"/>
<path opacity="0.7" d="M116.624 738.795L182.898 726.38L143.114 736.809L116.624 738.795Z" fill="#404040"/>
<path opacity="0.7" d="M130.775 654.542L148.374 666.847L118.165 666.034L130.775 654.542Z" fill="#A7A7A7"/>
<path opacity="0.7" d="M90.5318 638.138L130.775 654.542L118.165 666.034L90.5318 638.138Z" fill="#AAAAAA"/>
<path opacity="0.7" d="M175.787 273.866L246.128 271.482L192.12 289.269L175.787 273.866Z" fill="#7C7C7C"/>
<path opacity="0.7" d="M192.12 289.269L246.128 271.482L234.751 298.636L192.12 289.269Z" fill="#3B3B3B"/>
<path opacity="0.7" d="M90.5318 638.138L118.165 666.034L93.7256 647.792L90.5318 638.138Z" fill="#9C9C9C"/>
<path opacity="0.7" d="M151.22 323.296L192.12 289.269L234.751 298.636L151.22 323.296Z" fill="#383838"/>
<path opacity="0.7" d="M151.22 323.296L175.787 273.866L192.12 289.269L151.22 323.296Z" fill="#828282"/>
<path opacity="0.7" d="M130.466 315.118L175.787 273.866L151.22 323.296L130.466 315.118Z" fill="#A3A3A3"/>
<path opacity="0.7" d="M173.737 335.164L234.751 298.636L192.679 342.578L173.737 335.164Z" fill="#333333"/>
<path opacity="0.7" d="M151.22 323.296L234.751 298.636L173.737 335.164L151.22 323.296Z" fill="#3A3A3A"/>
<path opacity="0.7" d="M144.401 695.534L213.654 652.385L232.767 663.273L144.401 695.534Z" fill="#202020"/>
<path opacity="0.7" d="M93.7256 647.792L118.165 666.034L144.401 695.534L93.7256 647.792Z" fill="#898989"/>
<path opacity="0.7" d="M144.401 695.534L232.767 663.273L183.114 713.184L144.401 695.534Z" fill="#191919"/>
<path opacity="0.7" d="M118.165 666.034L148.374 666.847L144.401 695.534L118.165 666.034Z" fill="#757575"/>
<path opacity="0.7" d="M148.374 666.847L213.654 652.385L144.401 695.534L148.374 666.847Z" fill="#6E6E6E"/>
<path opacity="0.7" d="M2.79043 617.655L0.209961 618.745L6.69152 558.377L2.79043 617.655Z" fill="#737373"/>
<path opacity="0.7" d="M2.79043 617.655L25.0642 688.68L0.209961 618.745L2.79043 617.655Z" fill="#393939"/>
<path opacity="0.7" d="M65.4841 435.373L130.465 315.118L80.7072 440.308L65.4841 435.373Z" fill="#A7A7A7"/>
<path opacity="0.7" d="M130.466 315.118L151.22 323.296L80.7073 440.308L130.466 315.118Z" fill="#929292"/>
<path opacity="0.7" d="M125.973 723.763L182.898 726.38L116.624 738.795L125.973 723.763Z" fill="#1A1A1A"/>
<path opacity="0.7" d="M144.401 695.535L183.114 713.184L125.973 723.763L144.401 695.535Z" fill="black"/>
<path opacity="0.7" d="M125.973 723.763L183.114 713.184L182.898 726.38L125.973 723.763Z" fill="#131313"/>
<path opacity="0.7" d="M65.4842 435.373L13.1952 561.088L6.69153 558.377L65.4842 435.373Z" fill="#A0A0A0"/>
<path opacity="0.7" d="M13.1952 561.089L2.79044 617.655L6.69153 558.377L13.1952 561.089Z" fill="#7B7B7B"/>
<path opacity="0.7" d="M80.7073 440.308L13.1952 561.088L65.4842 435.373L80.7073 440.308Z" fill="#A7A7A7"/>
<path opacity="0.7" d="M131.256 463.773L192.679 342.578L140.682 470.412L131.256 463.773Z" fill="#646464"/>
<path opacity="0.7" d="M173.737 335.164L192.679 342.578L131.256 463.773L173.737 335.164Z" fill="#333333"/>
<path opacity="0.7" d="M140.682 470.412L88.2442 590.899L80.6078 587.978L140.682 470.412Z" fill="#7A7A7A"/>
<path opacity="0.7" d="M140.682 470.412L80.6078 587.978L131.256 463.773L140.682 470.412Z" fill="#757575"/>
<path opacity="0.7" d="M80.7073 440.308L151.22 323.296L110.629 453.216L80.7073 440.308Z" fill="#7A7A7A"/>
<path opacity="0.7" d="M110.629 453.216L151.22 323.296L173.737 335.164L110.629 453.216Z" fill="#4B4B4B"/>
<path opacity="0.7" d="M110.629 453.216L173.737 335.164L131.256 463.773L110.629 453.216Z" fill="#020202"/>
<path opacity="0.7" d="M88.2442 590.899L83.4314 613.218L75.9774 621.152L88.2442 590.899Z" fill="#696969"/>
<path opacity="0.7" d="M88.2442 590.899L75.9774 621.152L80.6078 587.978L88.2442 590.899Z" fill="#767676"/>
<path opacity="0.7" d="M83.4314 613.218L93.7256 647.792L75.9774 621.152L83.4314 613.218Z" fill="#757575"/>
<path opacity="0.7" d="M2.79044 617.655L27.6336 673.498L25.0642 688.68L2.79044 617.655Z" fill="#323232"/>
<path opacity="0.7" d="M67.1971 704.282L125.973 723.763L116.624 738.795L67.1971 704.282Z" fill="#131313"/>
<path opacity="0.7" d="M27.6336 673.498L67.1971 704.282L25.0642 688.679L27.6336 673.498Z" fill="#343434"/>
<path opacity="0.7" d="M67.1971 704.282L65.4234 726.712L25.0642 688.679L67.1971 704.282Z" fill="#323232"/>
<path opacity="0.7" d="M67.1971 704.282L116.624 738.795L65.4234 726.712L67.1971 704.282Z" fill="#1A1A1A"/>
<path opacity="0.7" d="M13.1952 561.089L15.6707 601.904L2.79044 617.655L13.1952 561.089Z" fill="#656565"/>
<path opacity="0.7" d="M70.8054 661.281L144.401 695.535L125.973 723.763L70.8054 661.281Z" fill="#131313"/>
<path opacity="0.7" d="M93.7257 647.792L144.401 695.534L70.8054 661.281L93.7257 647.792Z" fill="#4E4E4E"/>
<path opacity="0.7" d="M70.8054 661.281L125.973 723.763L67.1971 704.282L70.8054 661.281Z" fill="black"/>
<path opacity="0.7" d="M75.9773 621.152L93.7256 647.792L70.8054 661.281L75.9773 621.152Z" fill="#636363"/>
<path opacity="0.7" d="M38.4031 571.241L13.1952 561.088L80.7073 440.308L38.4031 571.241Z" fill="#757575"/>
<path opacity="0.7" d="M38.4031 571.241L15.6707 601.904L13.1952 561.089L38.4031 571.241Z" fill="#737373"/>
<path opacity="0.7" d="M110.629 453.216L38.4031 571.241L80.7073 440.308L110.629 453.216Z" fill="#797979"/>
<path opacity="0.7" d="M32.7338 643.56L67.1971 704.282L27.6336 673.498L32.7338 643.56Z" fill="#191919"/>
<path opacity="0.7" d="M15.6707 601.904L32.7338 643.56L2.79044 617.655L15.6707 601.904Z" fill="#3B3B3B"/>
<path opacity="0.7" d="M70.8053 661.281L32.7338 643.56L38.4031 571.241L70.8053 661.281Z" fill="#404040"/>
<path opacity="0.7" d="M38.4031 571.241L32.7338 643.56L15.6707 601.904L38.4031 571.241Z" fill="#505050"/>
<path opacity="0.7" d="M70.8053 661.281L67.1971 704.282L32.7338 643.56L70.8053 661.281Z" fill="#131313"/>
<path opacity="0.7" d="M32.7338 643.56L27.6336 673.498L2.79044 617.655L32.7338 643.56Z" fill="#393939"/>
<path opacity="0.7" d="M131.256 463.773L62.423 580.813L110.629 453.216L131.256 463.773Z" fill="#020202"/>
<path opacity="0.7" d="M131.256 463.773L80.6078 587.978L62.423 580.813L131.256 463.773Z" fill="#404040"/>
<path opacity="0.7" d="M62.423 580.813L70.8053 661.281L38.4031 571.241L62.423 580.813Z" fill="#3E3E3E"/>
<path opacity="0.7" d="M62.423 580.813L38.4031 571.241L110.629 453.216L62.423 580.813Z" fill="#5A5A5A"/>
<path opacity="0.7" d="M80.6078 587.978L70.8053 661.281L62.423 580.813L80.6078 587.978Z" fill="#323232"/>
<path opacity="0.7" d="M285.725 432.264L344.921 396.389L266.136 445.531L285.725 432.264Z" fill="#666666"/>
<path opacity="0.7" d="M226.352 396.279L259.13 419.915L185.943 425.912L226.352 396.279Z" fill="#535353"/>
<path opacity="0.7" d="M259.13 419.914L324.758 369.251L285.725 432.264L259.13 419.914Z" fill="#393939"/>
<path opacity="0.7" d="M212.007 444.607L285.725 432.264L266.136 445.531L212.007 444.607Z" fill="#565656"/>
<path opacity="0.7" d="M185.943 425.912L259.13 419.915L212.007 444.607L185.943 425.912Z" fill="black"/>
<path opacity="0.7" d="M259.13 419.915L285.725 432.264L212.007 444.607L259.13 419.915Z" fill="#353535"/>
<path opacity="0.7" d="M281.984 340.586L355.574 229.798L293.179 356.598L281.984 340.586Z" fill="#B2B2B2"/>
<path opacity="0.7" d="M248.659 368.2L281.984 340.586L293.179 356.598L248.659 368.2Z" fill="#B0B0B0"/>
<path opacity="0.7" d="M193.822 358.423L293.179 356.598L226.352 396.279L193.822 358.423Z" fill="#9A9A9A"/>
<path opacity="0.7" d="M226.352 396.279L324.758 369.251L259.13 419.915L226.352 396.279Z" fill="#565656"/>
<path opacity="0.7" d="M226.352 396.279L293.179 356.598L324.758 369.251L226.352 396.279Z" fill="#6A6A6A"/>
<path opacity="0.7" d="M293.179 356.598L384.932 241.926L324.758 369.251L293.179 356.598Z" fill="#404040"/>
<path opacity="0.7" d="M355.574 229.798L384.932 241.926L293.179 356.598L355.574 229.798Z" fill="#909090"/>
<path opacity="0.7" d="M414.831 261.019L427.402 274.076L344.921 396.389L414.831 261.019Z" fill="#737373"/>
<path opacity="0.7" d="M324.758 369.251L414.831 261.019L285.725 432.264L324.758 369.251Z" fill="#393939"/>
<path opacity="0.7" d="M324.758 369.251L384.932 241.926L414.831 261.019L324.758 369.251Z" fill="#010101"/>
<path opacity="0.7" d="M285.725 432.264L414.831 261.019L344.921 396.389L285.725 432.264Z" fill="#535353"/>
</g>
<path d="M223.025 167.715L160.763 269.872L156.696 273.141L223.025 167.715Z" stroke="#212121" stroke-width="0.75" stroke-linecap="round" stroke-linejoin="round"/>
<path d="M259.804 254.872L256.715 254.441C277.602 221.827 288.248 205.647 288.653 205.902C289.058 206.156 279.442 222.48 259.804 254.872Z" stroke="#212121" stroke-width="0.75" stroke-linecap="round" stroke-linejoin="round"/>
<path d="M234.568 170.437L161.398 270.458C181.942 236.218 202.485 201.97 223.025 167.715L234.568 170.437Z" stroke="#212121" stroke-width="0.75" stroke-linecap="round" stroke-linejoin="round"/>
<path d="M223.025 167.715L292.924 61.2532L234.568 170.437L223.025 167.715Z" stroke="#212121" stroke-width="0.75" stroke-linecap="round" stroke-linejoin="round"/>
<path d="M234.568 170.437L185.07 261.473L161.398 270.458L234.568 170.437Z" stroke="#212121" stroke-width="0.75" stroke-linecap="round" stroke-linejoin="round"/>
<path d="M243.315 251.901L228.722 249.063L267.639 189.525C259.535 210.317 251.427 231.109 243.315 251.901Z" stroke="#212121" stroke-width="0.75" stroke-linecap="round" stroke-linejoin="round"/>
<path d="M267.639 189.525L228.722 249.063L215.179 250.169L267.639 189.525Z" stroke="#212121" stroke-width="0.75" stroke-linecap="round" stroke-linejoin="round"/>
<path d="M276.01 176.766L185.07 261.473L234.568 170.437L276.01 176.766Z" stroke="#212121" stroke-width="0.75" stroke-linecap="round" stroke-linejoin="round"/>
<path d="M288.653 205.902L242.536 251.741L267.639 189.514L288.653 205.902Z" stroke="#212121" stroke-width="0.75" stroke-linecap="round" stroke-linejoin="round"/>
<path d="M216.82 337.039C218.548 343.144 220.279 349.248 222.014 355.353L214.831 351.895C215.494 346.945 216.157 341.993 216.82 337.039Z" stroke="#212121" stroke-width="0.75" stroke-linecap="round" stroke-linejoin="round"/>
<path d="M216.925 335.49L214.836 351.884L206.432 345.72L216.925 335.49Z" stroke="#212121" stroke-width="0.75" stroke-linecap="round" stroke-linejoin="round"/>
<path d="M234.568 170.437L345.434 71.0186L267.639 189.525L234.568 170.437Z" stroke="#212121" stroke-width="0.75" stroke-linecap="round" stroke-linejoin="round"/>
<path d="M345.434 71.0186L366.443 94.815L288.653 205.902L345.434 71.0186Z" stroke="#212121" stroke-width="0.75" stroke-linecap="round" stroke-linejoin="round"/>
<path d="M267.639 189.525L345.434 71.0186L288.653 205.902L267.639 189.525Z" stroke="#212121" stroke-width="0.75" stroke-linecap="round" stroke-linejoin="round"/>
<path d="M400.547 73.8237L418.555 64.844L366.443 94.815L400.547 73.8237Z" stroke="#212121" stroke-width="0.75" stroke-linecap="round" stroke-linejoin="round"/>
<path d="M345.434 71.0186L400.547 73.8237L366.443 94.815L345.434 71.0186Z" stroke="#212121" stroke-width="0.75" stroke-linecap="round" stroke-linejoin="round"/>
<path d="M292.924 61.2532L338.472 24.7646L387.429 5.41656L292.924 61.2532Z" stroke="#212121" stroke-width="0.75" stroke-linecap="round" stroke-linejoin="round"/>
<path d="M234.568 170.437L387.429 5.41656L345.434 71.0185L234.568 170.437Z" stroke="#212121" stroke-width="0.75" stroke-linecap="round" stroke-linejoin="round"/>
<path d="M292.924 61.2532L387.429 5.41656L234.568 170.437L292.924 61.2532Z" stroke="#212121" stroke-width="0.75" stroke-linecap="round" stroke-linejoin="round"/>
<path d="M214.836 351.884L193.839 358.412L205.736 345.2L214.836 351.884Z" stroke="#212121" stroke-width="0.75" stroke-linecap="round" stroke-linejoin="round"/>
<path d="M170.742 406.857L185.937 425.912L168.084 411.809L170.742 406.857Z" stroke="#212121" stroke-width="0.75" stroke-linecap="round" stroke-linejoin="round"/>
<path d="M175.472 396.007L185.97 425.884L170.742 406.857C172.326 403.246 173.902 399.63 175.472 396.007Z" stroke="#212121" stroke-width="0.75" stroke-linecap="round" stroke-linejoin="round"/>
<path d="M345.434 71.0185L403.592 43.0338L400.547 73.8236L345.434 71.0185Z" stroke="#212121" stroke-width="0.75" stroke-linecap="round" stroke-linejoin="round"/>
<path d="M387.429 5.41656L403.592 43.0338L345.434 71.0185L387.429 5.41656Z" stroke="#212121" stroke-width="0.75" stroke-linecap="round" stroke-linejoin="round"/>
<path d="M403.592 43.0338L430.214 87.0027L400.547 73.8236L403.592 43.0338Z" stroke="#212121" stroke-width="0.75" stroke-linecap="round" stroke-linejoin="round"/>
<path d="M409.266 0.210236L457.218 2.26289L387.429 5.41656L409.266 0.210236Z" stroke="#212121" stroke-width="0.75" stroke-linecap="round" stroke-linejoin="round"/>
<path d="M190.695 363.503L226.352 396.284L185.948 425.912C187.529 405.105 189.111 384.302 190.695 363.503Z" stroke="#212121" stroke-width="0.75" stroke-linecap="round" stroke-linejoin="round"/>
<path d="M193.822 358.423L226.352 396.279L190.756 364.426L193.822 358.423Z" stroke="#212121" stroke-width="0.75" stroke-linecap="round" stroke-linejoin="round"/>
<path d="M387.429 5.41655L457.218 2.26288L472.259 33.9379L387.429 5.41655Z" stroke="#212121" stroke-width="0.75" stroke-linecap="round" stroke-linejoin="round"/>
<path d="M507.7 43.1334L472.259 33.9379L457.218 2.26288L507.7 43.1334Z" stroke="#212121" stroke-width="0.75" stroke-linecap="round" stroke-linejoin="round"/>
<path d="M387.429 5.41656L472.259 33.938L436.773 99.5123L387.429 5.41656Z" stroke="#212121" stroke-width="0.75" stroke-linecap="round" stroke-linejoin="round"/>
<path d="M387.429 5.41656L436.773 99.5123L403.592 43.0338L387.429 5.41656Z" stroke="#212121" stroke-width="0.75" stroke-linecap="round" stroke-linejoin="round"/>
<path d="M455.941 107.806L355.574 229.798L436.773 99.5122L455.941 107.806Z" stroke="#212121" stroke-width="0.75" stroke-linecap="round" stroke-linejoin="round"/>
<path d="M472.259 33.9379L455.941 107.806L436.773 99.5122L472.259 33.9379Z" stroke="#212121" stroke-width="0.75" stroke-linecap="round" stroke-linejoin="round"/>
<path d="M519.79 87.6224L501.478 150.901L507.7 43.1334L519.79 87.6224Z" stroke="#212121" stroke-width="0.75" stroke-linecap="round" stroke-linejoin="round"/>
<path d="M507.7 43.1334L501.478 150.901L472.259 33.9379L507.7 43.1334Z" stroke="#212121" stroke-width="0.75" stroke-linecap="round" stroke-linejoin="round"/>
<path d="M519.79 87.6223L503.412 161.108L501.478 150.901L519.79 87.6223Z" stroke="#212121" stroke-width="0.75" stroke-linecap="round" stroke-linejoin="round"/>
<path d="M503.412 161.108L427.402 274.076L501.478 150.901L503.412 161.108Z" stroke="#212121" stroke-width="0.75" stroke-linecap="round" stroke-linejoin="round"/>
<path d="M455.941 107.806L384.932 241.926L355.574 229.798L455.941 107.806Z" stroke="#212121" stroke-width="0.75" stroke-linecap="round" stroke-linejoin="round"/>
<path d="M501.478 150.901L427.402 274.076L414.831 261.019L501.478 150.901Z" stroke="#212121" stroke-width="0.75" stroke-linecap="round" stroke-linejoin="round"/>
<path d="M472.259 33.9379L487.134 138.568L455.941 107.806L472.259 33.9379Z" stroke="#212121" stroke-width="0.75" stroke-linecap="round" stroke-linejoin="round"/>
<path d="M501.478 150.901L414.831 261.019L487.134 138.568L501.478 150.901Z" stroke="#212121" stroke-width="0.75" stroke-linecap="round" stroke-linejoin="round"/>
<path d="M501.478 150.901L487.134 138.568L472.259 33.9379L501.478 150.901Z" stroke="#212121" stroke-width="0.75" stroke-linecap="round" stroke-linejoin="round"/>
<path d="M487.134 138.568L384.932 241.926L455.941 107.806L487.134 138.568Z" stroke="#212121" stroke-width="0.75" stroke-linecap="round" stroke-linejoin="round"/>
<path d="M487.134 138.568L414.831 261.019L384.932 241.926L487.134 138.568Z" stroke="#212121" stroke-width="0.75" stroke-linecap="round" stroke-linejoin="round"/>
<path d="M214.836 351.895L248.659 368.2L193.822 358.423L214.836 351.895Z" stroke="#212121" stroke-width="0.75" stroke-linecap="round" stroke-linejoin="round"/>
<path d="M268.882 351.441L265.744 354.429L249.239 335.153L268.882 351.441Z" stroke="#212121" stroke-width="0.75" stroke-linecap="round" stroke-linejoin="round"/>
<path d="M352.154 385.667C352.614 388.215 353.075 390.766 353.535 393.319L338.892 421.89L352.154 385.667Z" stroke="#212121" stroke-width="0.75" stroke-linecap="round" stroke-linejoin="round"/>
<path d="M353.535 393.319L346.048 427.732L338.892 421.89L353.535 393.319Z" stroke="#212121" stroke-width="0.75" stroke-linecap="round" stroke-linejoin="round"/>
<path d="M168.438 629.329L215.941 512.633L225.147 514.53L168.438 629.329Z" stroke="#212121" stroke-width="0.75" stroke-linecap="round" stroke-linejoin="round"/>
<path d="M160.298 634.967L215.941 512.633L168.438 629.329L160.298 634.967Z" stroke="#212121" stroke-width="0.75" stroke-linecap="round" stroke-linejoin="round"/>
<path d="M280.028 436.12L225.147 514.547L259.566 446.765L280.028 436.12Z" stroke="#212121" stroke-width="0.75" stroke-linecap="round" stroke-linejoin="round"/>
<path d="M294.284 548.302L289.891 543.992L346.048 427.732L294.284 548.302Z" stroke="#212121" stroke-width="0.75" stroke-linecap="round" stroke-linejoin="round"/>
<path d="M289.891 543.992L294.284 548.302L240.343 668.529L289.891 543.992Z" stroke="#212121" stroke-width="0.75" stroke-linecap="round" stroke-linejoin="round"/>
<path d="M346.048 427.732L289.891 543.992L338.892 421.89L346.048 427.732Z" stroke="#212121" stroke-width="0.75" stroke-linecap="round" stroke-linejoin="round"/>
<path d="M117.9 315.273L139.776 289.845L156.696 273.141L117.9 315.273Z" stroke="#212121" stroke-width="0.75" stroke-linecap="round" stroke-linejoin="round"/>
<path d="M315.651 289.917L311.01 296.899L300.655 282.171L315.651 289.917Z" stroke="#212121" stroke-width="0.75" stroke-linecap="round" stroke-linejoin="round"/>
<path d="M301.213 271.166L316.972 287.211L300.655 282.171L301.213 271.166Z" stroke="#212121" stroke-width="0.75" stroke-linecap="round" stroke-linejoin="round"/>
<path d="M253.681 325.443L268.882 351.447L249.239 335.158L253.681 325.443Z" stroke="#212121" stroke-width="0.75" stroke-linecap="round" stroke-linejoin="round"/>
<path d="M253.681 325.443L249.239 335.153L221.633 330.859L253.681 325.443Z" stroke="#212121" stroke-width="0.75" stroke-linecap="round" stroke-linejoin="round"/>
<path d="M281.984 340.586L269.175 349.632L253.704 325.443L281.984 340.586Z" stroke="#212121" stroke-width="0.75" stroke-linecap="round" stroke-linejoin="round"/>
<path d="M238.596 253.389L301.213 271.166L300.655 282.143L238.596 253.389Z" stroke="#212121" stroke-width="0.75" stroke-linecap="round" stroke-linejoin="round"/>
<path d="M220.738 248.67L268.816 257.356L238.596 253.389L220.738 248.67Z" stroke="#212121" stroke-width="0.75" stroke-linecap="round" stroke-linejoin="round"/>
<path d="M268.816 257.356L301.213 271.166L238.596 253.389L268.816 257.356Z" stroke="#212121" stroke-width="0.75" stroke-linecap="round" stroke-linejoin="round"/>
<path d="M229.612 324.496L253.681 325.443L221.633 330.859L229.612 324.496Z" stroke="#212121" stroke-width="0.75" stroke-linecap="round" stroke-linejoin="round"/>
<path d="M300.655 282.171L311.01 296.916C307.481 302.209 303.954 307.522 300.428 312.856L300.655 282.171Z" stroke="#212121" stroke-width="0.75" stroke-linecap="round" stroke-linejoin="round"/>
<path d="M310.745 417.547C288.067 496.481 275.996 535.752 274.53 535.361C273.063 534.97 281.496 497.755 299.826 423.716L310.745 417.547Z" stroke="#212121" stroke-width="0.75" stroke-linecap="round" stroke-linejoin="round"/>
<path d="M289.896 543.992L269.043 545.907L288.145 512.832C288.73 523.222 289.314 533.609 289.896 543.992Z" stroke="#212121" stroke-width="0.75" stroke-linecap="round" stroke-linejoin="round"/>
<path d="M338.892 421.89L289.896 543.992C289.034 534.033 288.176 524.074 287.321 514.115L338.892 421.89Z" stroke="#212121" stroke-width="0.75" stroke-linecap="round" stroke-linejoin="round"/>
<path d="M274.53 535.361L243.857 521.407L299.826 423.716L274.53 535.361Z" stroke="#212121" stroke-width="0.75" stroke-linecap="round" stroke-linejoin="round"/>
<path d="M338.892 421.89L274.53 535.361C286.598 496.09 298.669 456.818 310.745 417.547L338.892 421.89Z" stroke="#212121" stroke-width="0.75" stroke-linecap="round" stroke-linejoin="round"/>
<path d="M130.775 654.542L168.438 629.329L184.385 636.948L130.775 654.542Z" stroke="#212121" stroke-width="0.75" stroke-linecap="round" stroke-linejoin="round"/>
<path d="M168.438 629.33L225.147 514.53L184.385 636.948L168.438 629.33Z" stroke="#212121" stroke-width="0.75" stroke-linecap="round" stroke-linejoin="round"/>
<path d="M225.147 514.547L241.724 491.829C242.431 501.696 243.135 511.561 243.835 521.424C224.012 559.94 204.188 598.453 184.362 636.965L225.147 514.547Z" stroke="#212121" stroke-width="0.75" stroke-linecap="round" stroke-linejoin="round"/>
<path d="M232.767 663.273L240.343 668.529L219.738 697.748L232.767 663.273Z" stroke="#212121" stroke-width="0.75" stroke-linecap="round" stroke-linejoin="round"/>
<path d="M232.767 663.273L289.891 543.992L240.343 668.529L232.767 663.273Z" stroke="#212121" stroke-width="0.75" stroke-linecap="round" stroke-linejoin="round"/>
<path d="M238.596 253.389L300.655 282.143L246.128 271.482L238.596 253.389Z" stroke="#212121" stroke-width="0.75" stroke-linecap="round" stroke-linejoin="round"/>
<path d="M246.128 271.482L300.655 282.143L300.428 312.856L246.128 271.482Z" stroke="#212121" stroke-width="0.75" stroke-linecap="round" stroke-linejoin="round"/>
<path d="M156.668 273.136L220.716 248.67L175.759 273.866L156.668 273.136Z" stroke="#212121" stroke-width="0.75" stroke-linecap="round" stroke-linejoin="round"/>
<path d="M220.738 248.67L238.596 253.389L175.787 273.866L220.738 248.67Z" stroke="#212121" stroke-width="0.75" stroke-linecap="round" stroke-linejoin="round"/>
<path d="M175.787 273.866L238.596 253.389L246.128 271.482L175.787 273.866Z" stroke="#212121" stroke-width="0.75" stroke-linecap="round" stroke-linejoin="round"/>
<path d="M130.775 654.542L184.385 636.948L148.374 666.847L130.775 654.542Z" stroke="#212121" stroke-width="0.75" stroke-linecap="round" stroke-linejoin="round"/>
<path d="M246.128 271.482L300.428 312.856L234.751 298.636L246.128 271.482Z" stroke="#212121" stroke-width="0.75" stroke-linecap="round" stroke-linejoin="round"/>
<path d="M234.751 298.636L286.598 333.625L253.681 325.443L234.751 298.636Z" stroke="#212121" stroke-width="0.75" stroke-linecap="round" stroke-linejoin="round"/>
<path d="M234.751 298.636L253.681 325.443L229.612 324.496L234.751 298.636Z" stroke="#212121" stroke-width="0.75" stroke-linecap="round" stroke-linejoin="round"/>
<path d="M234.751 298.636L300.428 312.856C295.812 319.783 291.208 326.711 286.614 333.642L234.751 298.636Z" stroke="#212121" stroke-width="0.75" stroke-linecap="round" stroke-linejoin="round"/>
<path d="M213.085 652.313L243.288 521.352L278.414 513.313C276.941 520.646 275.456 527.977 273.96 535.306C253.67 574.312 233.378 613.314 213.085 652.313Z" stroke="#212121" stroke-width="0.75" stroke-linecap="round" stroke-linejoin="round"/>
<path d="M148.374 666.847L184.385 636.948L213.654 652.385L148.374 666.847Z" stroke="#212121" stroke-width="0.75" stroke-linecap="round" stroke-linejoin="round"/>
<path d="M184.385 636.948L243.857 521.407L213.654 652.385L184.385 636.948Z" stroke="#212121" stroke-width="0.75" stroke-linecap="round" stroke-linejoin="round"/>
<path d="M213.654 652.385L269.043 545.907L289.896 543.992L213.654 652.385Z" stroke="#212121" stroke-width="0.75" stroke-linecap="round" stroke-linejoin="round"/>
<path d="M213.654 652.385L289.891 543.992L232.767 663.273L213.654 652.385Z" stroke="#212121" stroke-width="0.75" stroke-linecap="round" stroke-linejoin="round"/>
<path d="M65.4842 435.373L6.69153 558.377L64.042 437.276L65.4842 435.373Z" stroke="#212121" stroke-width="0.75" stroke-linecap="round" stroke-linejoin="round"/>
<path d="M64.042 437.276L117.9 315.273L65.4842 435.373L64.042 437.276Z" stroke="#212121" stroke-width="0.75" stroke-linecap="round" stroke-linejoin="round"/>
<path d="M117.9 315.273L156.696 273.141L130.466 315.118L117.9 315.273Z" stroke="#212121" stroke-width="0.75" stroke-linecap="round" stroke-linejoin="round"/>
<path d="M65.4841 435.373L117.9 315.273L130.465 315.118L65.4841 435.373Z" stroke="#212121" stroke-width="0.75" stroke-linecap="round" stroke-linejoin="round"/>
<path d="M156.696 273.141L175.787 273.866L130.466 315.118L156.696 273.141Z" stroke="#212121" stroke-width="0.75" stroke-linecap="round" stroke-linejoin="round"/>
<path d="M192.679 342.578L229.612 324.496L194.834 354.644L192.679 342.578Z" stroke="#212121" stroke-width="0.75" stroke-linecap="round" stroke-linejoin="round"/>
<path d="M192.679 342.578L234.751 298.636L229.612 324.496L192.679 342.578Z" stroke="#212121" stroke-width="0.75" stroke-linecap="round" stroke-linejoin="round"/>
<path d="M140.682 470.412L192.679 342.578L194.834 354.644L140.682 470.412Z" stroke="#212121" stroke-width="0.75" stroke-linecap="round" stroke-linejoin="round"/>
<path d="M183.114 713.184L232.767 663.273L219.737 697.748L183.114 713.184Z" stroke="#212121" stroke-width="0.75" stroke-linecap="round" stroke-linejoin="round"/>
<path d="M183.114 713.184L219.738 697.748L182.898 726.38L183.114 713.184Z" stroke="#212121" stroke-width="0.75" stroke-linecap="round" stroke-linejoin="round"/>
<path d="M65.4234 726.712L116.624 738.795L86.6142 734.541L65.4234 726.712Z" stroke="#212121" stroke-width="0.75" stroke-linecap="round" stroke-linejoin="round"/>
<path d="M116.624 738.795L182.898 726.38L143.114 736.809L116.624 738.795Z" stroke="#212121" stroke-width="0.75" stroke-linecap="round" stroke-linejoin="round"/>
<path d="M130.775 654.542L148.374 666.847L118.165 666.034L130.775 654.542Z" stroke="#212121" stroke-width="0.75" stroke-linecap="round" stroke-linejoin="round"/>
<path d="M90.5318 638.138L130.775 654.542L118.165 666.034L90.5318 638.138Z" stroke="#212121" stroke-width="0.75" stroke-linecap="round" stroke-linejoin="round"/>
<path d="M175.787 273.866L246.128 271.482L192.12 289.269L175.787 273.866Z" stroke="#212121" stroke-width="0.75" stroke-linecap="round" stroke-linejoin="round"/>
<path d="M192.12 289.269L246.128 271.482L234.751 298.636L192.12 289.269Z" stroke="#212121" stroke-width="0.75" stroke-linecap="round" stroke-linejoin="round"/>
<path d="M90.5318 638.138L118.165 666.034L93.7256 647.792L90.5318 638.138Z" stroke="#212121" stroke-width="0.75" stroke-linecap="round" stroke-linejoin="round"/>
<path d="M151.22 323.296L192.12 289.269L234.751 298.636L151.22 323.296Z" stroke="#212121" stroke-width="0.75" stroke-linecap="round" stroke-linejoin="round"/>
<path d="M151.22 323.296L175.787 273.866L192.12 289.269L151.22 323.296Z" stroke="#212121" stroke-width="0.75" stroke-linecap="round" stroke-linejoin="round"/>
<path d="M130.466 315.118L175.787 273.866L151.22 323.296L130.466 315.118Z" stroke="#212121" stroke-width="0.75" stroke-linecap="round" stroke-linejoin="round"/>
<path d="M173.737 335.164L234.751 298.636L192.679 342.578L173.737 335.164Z" stroke="#212121" stroke-width="0.75" stroke-linecap="round" stroke-linejoin="round"/>
<path d="M151.22 323.296L234.751 298.636L173.737 335.164L151.22 323.296Z" stroke="#212121" stroke-width="0.75" stroke-linecap="round" stroke-linejoin="round"/>
<path d="M144.401 695.534L213.654 652.385L232.767 663.273L144.401 695.534Z" stroke="#212121" stroke-width="0.75" stroke-linecap="round" stroke-linejoin="round"/>
<path d="M93.7256 647.792L118.165 666.034L144.401 695.534L93.7256 647.792Z" stroke="#212121" stroke-width="0.75" stroke-linecap="round" stroke-linejoin="round"/>
<path d="M144.401 695.534L232.767 663.273L183.114 713.184L144.401 695.534Z" stroke="#212121" stroke-width="0.75" stroke-linecap="round" stroke-linejoin="round"/>
<path d="M118.165 666.034L148.374 666.847L144.401 695.534L118.165 666.034Z" stroke="#212121" stroke-width="0.75" stroke-linecap="round" stroke-linejoin="round"/>
<path d="M148.374 666.847L213.654 652.385L144.401 695.534L148.374 666.847Z" stroke="#212121" stroke-width="0.75" stroke-linecap="round" stroke-linejoin="round"/>
<path d="M2.79043 617.655L0.209961 618.745L6.69152 558.377L2.79043 617.655Z" stroke="#212121" stroke-width="0.75" stroke-linecap="round" stroke-linejoin="round"/>
<path d="M2.79043 617.655L25.0642 688.68L0.209961 618.745L2.79043 617.655Z" stroke="#212121" stroke-width="0.75" stroke-linecap="round" stroke-linejoin="round"/>
<path d="M58.9639 451.053L130.466 315.118L80.7073 440.308L58.9639 451.053Z" stroke="#212121" stroke-width="0.75" stroke-linecap="round" stroke-linejoin="round"/>
<path d="M130.466 315.118L151.22 323.296L80.7073 440.308L130.466 315.118Z" stroke="#212121" stroke-width="0.75" stroke-linecap="round" stroke-linejoin="round"/>
<path d="M125.973 723.763L182.898 726.38L116.624 738.795L125.973 723.763Z" stroke="#212121" stroke-width="0.75" stroke-linecap="round" stroke-linejoin="round"/>
<path d="M144.401 695.535L183.114 713.184L125.973 723.763L144.401 695.535Z" stroke="#212121" stroke-width="0.75" stroke-linecap="round" stroke-linejoin="round"/>
<path d="M125.973 723.763L183.114 713.184L182.898 726.38L125.973 723.763Z" stroke="#212121" stroke-width="0.75" stroke-linecap="round" stroke-linejoin="round"/>
<path d="M65.4842 435.373L13.1952 561.088L6.69153 558.377L65.4842 435.373Z" stroke="#212121" stroke-width="0.75" stroke-linecap="round" stroke-linejoin="round"/>
<path d="M13.1952 561.089L2.79044 617.655L6.69153 558.377L13.1952 561.089Z" stroke="#212121" stroke-width="0.75" stroke-linecap="round" stroke-linejoin="round"/>
<path d="M80.7073 440.308L13.1952 561.088L71.7668 423.721L80.7073 440.308Z" stroke="#212121" stroke-width="0.75" stroke-linecap="round" stroke-linejoin="round"/>
<path d="M131.256 463.773L192.679 342.578L140.682 470.412L131.256 463.773Z" stroke="#212121" stroke-width="0.75" stroke-linecap="round" stroke-linejoin="round"/>
<path d="M173.737 335.164L192.679 342.578L131.256 463.773L173.737 335.164Z" stroke="#212121" stroke-width="0.75" stroke-linecap="round" stroke-linejoin="round"/>
<path d="M140.682 470.412L88.2442 590.899L80.6078 587.978L140.682 470.412Z" stroke="#212121" stroke-width="0.75" stroke-linecap="round" stroke-linejoin="round"/>
<path d="M140.682 470.412L80.6078 587.978L131.256 463.773L140.682 470.412Z" stroke="#212121" stroke-width="0.75" stroke-linecap="round" stroke-linejoin="round"/>
<path d="M80.7072 440.308L151.22 323.296L110.628 453.216L72.1757 466.711L80.7072 440.308Z" stroke="#212121" stroke-width="0.75" stroke-linecap="round" stroke-linejoin="round"/>
<path d="M110.629 453.216L151.22 323.296L173.737 335.164L110.629 453.216Z" stroke="#212121" stroke-width="0.75" stroke-linecap="round" stroke-linejoin="round"/>
<path d="M110.629 453.216L173.737 335.164L131.256 463.773L132.361 456.027L110.629 453.216Z" stroke="#212121" stroke-width="0.75" stroke-linecap="round" stroke-linejoin="round"/>
<path d="M88.2442 590.899L83.4314 613.218L75.9774 621.152L88.2442 590.899Z" stroke="#212121" stroke-width="0.75" stroke-linecap="round" stroke-linejoin="round"/>
<path d="M88.2442 590.899L75.9774 621.152L80.6078 587.978L88.2442 590.899Z" stroke="#212121" stroke-width="0.75" stroke-linecap="round" stroke-linejoin="round"/>
<path d="M83.4314 613.218L93.7256 647.792L75.9774 621.152L83.4314 613.218Z" stroke="#212121" stroke-width="0.75" stroke-linecap="round" stroke-linejoin="round"/>
<path d="M2.79044 617.655L27.6336 673.498L25.0642 688.68L2.79044 617.655Z" stroke="#212121" stroke-width="0.75" stroke-linecap="round" stroke-linejoin="round"/>
<path d="M67.1971 704.282L125.973 723.763L116.624 738.795L67.1971 704.282Z" stroke="#212121" stroke-width="0.75" stroke-linecap="round" stroke-linejoin="round"/>
<path d="M27.6336 673.498L67.1971 704.282L25.0642 688.679L27.6336 673.498Z" stroke="#212121" stroke-width="0.75" stroke-linecap="round" stroke-linejoin="round"/>
<path d="M67.1971 704.282L65.4234 726.712L25.0642 688.679L67.1971 704.282Z" stroke="#212121" stroke-width="0.75" stroke-linecap="round" stroke-linejoin="round"/>
<path d="M67.1971 704.282L116.624 738.795L65.4234 726.712L67.1971 704.282Z" stroke="#212121" stroke-width="0.75" stroke-linecap="round" stroke-linejoin="round"/>
<path d="M13.1952 561.089L15.6707 601.904L2.79044 617.655L13.1952 561.089Z" stroke="#212121" stroke-width="0.75" stroke-linecap="round" stroke-linejoin="round"/>
<path d="M70.8054 661.281L144.401 695.535L125.973 723.763L70.8054 661.281Z" stroke="#212121" stroke-width="0.75" stroke-linecap="round" stroke-linejoin="round"/>
<path d="M93.7257 647.792L144.401 695.534L70.8054 661.281L93.7257 647.792Z" stroke="#212121" stroke-width="0.75" stroke-linecap="round" stroke-linejoin="round"/>
<path d="M70.8054 661.281L125.973 723.763L67.1971 704.282L70.8054 661.281Z" stroke="#212121" stroke-width="0.75" stroke-linecap="round" stroke-linejoin="round"/>
<path d="M75.9773 621.152L93.7256 647.792L70.8054 661.281L75.9773 621.152Z" stroke="#212121" stroke-width="0.75" stroke-linecap="round" stroke-linejoin="round"/>
<path d="M38.4031 571.241L13.1952 561.088L80.7073 440.308L38.4031 571.241Z" stroke="#212121" stroke-width="0.75" stroke-linecap="round" stroke-linejoin="round"/>
<path d="M38.4031 571.241L15.6707 601.904L13.1952 561.089L38.4031 571.241Z" stroke="#212121" stroke-width="0.75" stroke-linecap="round" stroke-linejoin="round"/>
<path d="M110.629 453.216L38.4086 571.241L80.7073 440.308L86.9402 429.962L110.629 453.216Z" stroke="#212121" stroke-width="0.75" stroke-linecap="round" stroke-linejoin="round"/>
<path d="M32.7338 643.56L67.1971 704.282L27.6336 673.498L32.7338 643.56Z" stroke="#212121" stroke-width="0.75" stroke-linecap="round" stroke-linejoin="round"/>
<path d="M15.6707 601.904L32.7338 643.56L2.79044 617.655L15.6707 601.904Z" stroke="#212121" stroke-width="0.75" stroke-linecap="round" stroke-linejoin="round"/>
<path d="M70.8053 661.281L32.7338 643.56L38.4031 571.241L70.8053 661.281Z" stroke="#212121" stroke-width="0.75" stroke-linecap="round" stroke-linejoin="round"/>
<path d="M38.4031 571.241L32.7338 643.56L15.6707 601.904L38.4031 571.241Z" stroke="#212121" stroke-width="0.75" stroke-linecap="round" stroke-linejoin="round"/>
<path d="M70.8053 661.281L67.1971 704.282L32.7338 643.56L70.8053 661.281Z" stroke="#212121" stroke-width="0.75" stroke-linecap="round" stroke-linejoin="round"/>
<path d="M32.7338 643.56L27.6336 673.498L2.79044 617.655L32.7338 643.56Z" stroke="#212121" stroke-width="0.75" stroke-linecap="round" stroke-linejoin="round"/>
<path d="M131.256 463.773L62.4396 580.807L110.645 453.216L139.887 437.641C137.006 446.35 134.129 455.06 131.256 463.773Z" stroke="#212121" stroke-width="0.75" stroke-linecap="round" stroke-linejoin="round"/>
<path d="M131.256 463.773L80.6078 587.978L62.423 580.813L131.256 463.773Z" stroke="#212121" stroke-width="0.75" stroke-linecap="round" stroke-linejoin="round"/>
<path d="M62.423 580.813L70.8053 661.281L38.4031 571.241L62.423 580.813Z" stroke="#212121" stroke-width="0.75" stroke-linecap="round" stroke-linejoin="round"/>
<path d="M62.423 580.813L38.4031 571.241L110.629 453.216L62.423 580.813Z" stroke="#212121" stroke-width="0.75" stroke-linecap="round" stroke-linejoin="round"/>
<path d="M80.6078 587.978L70.8053 661.281L62.423 580.813L80.6078 587.978Z" stroke="#212121" stroke-width="0.75" stroke-linecap="round" stroke-linejoin="round"/>
<path d="M285.725 432.264L344.921 396.389L266.136 445.531L285.725 432.264Z" stroke="#212121" stroke-width="0.75" stroke-linecap="round" stroke-linejoin="round"/>
<path d="M226.352 396.279L259.13 419.915L185.943 425.912L226.352 396.279Z" stroke="#212121" stroke-width="0.75" stroke-linecap="round" stroke-linejoin="round"/>
<path d="M259.13 419.914L324.758 369.251L285.725 432.264L259.13 419.914Z" stroke="#212121" stroke-width="0.75" stroke-linecap="round" stroke-linejoin="round"/>
<path d="M212.007 444.607L285.725 432.264L266.136 445.531L212.007 444.607Z" stroke="#212121" stroke-width="0.75" stroke-linecap="round" stroke-linejoin="round"/>
<path d="M185.943 425.912L259.13 419.915L212.007 444.607L185.943 425.912Z" stroke="#212121" stroke-width="0.75" stroke-linecap="round" stroke-linejoin="round"/>
<path d="M259.13 419.915L285.725 432.264L212.007 444.607L259.13 419.915Z" stroke="#212121" stroke-width="0.75" stroke-linecap="round" stroke-linejoin="round"/>
<path d="M281.984 340.586L355.574 229.798L293.179 356.598L281.984 340.586Z" stroke="#212121" stroke-width="0.75" stroke-linecap="round" stroke-linejoin="round"/>
<path d="M248.659 368.2L281.984 340.586L293.179 356.598L248.659 368.2Z" stroke="#212121" stroke-width="0.75" stroke-linecap="round" stroke-linejoin="round"/>
<path d="M193.822 358.423L293.179 356.598L226.352 396.279L193.822 358.423Z" stroke="#212121" stroke-width="0.75" stroke-linecap="round" stroke-linejoin="round"/>
<path d="M226.352 396.279L324.758 369.251L259.13 419.915L226.352 396.279Z" stroke="#212121" stroke-width="0.75" stroke-linecap="round" stroke-linejoin="round"/>
<path d="M226.352 396.279L293.179 356.598L324.758 369.251L226.352 396.279Z" stroke="#212121" stroke-width="0.75" stroke-linecap="round" stroke-linejoin="round"/>
<path d="M293.179 356.598L384.932 241.926L324.758 369.251L293.179 356.598Z" stroke="#212121" stroke-width="0.75" stroke-linecap="round" stroke-linejoin="round"/>
<path d="M355.574 229.798L384.932 241.926L293.179 356.598L355.574 229.798Z" stroke="#212121" stroke-width="0.75" stroke-linecap="round" stroke-linejoin="round"/>
<path d="M414.831 261.019L427.402 274.076L344.921 396.389L414.831 261.019Z" stroke="#212121" stroke-width="0.75" stroke-linecap="round" stroke-linejoin="round"/>
<path d="M324.758 369.251L414.831 261.019L285.725 432.264L324.758 369.251Z" stroke="#212121" stroke-width="0.75" stroke-linecap="round" stroke-linejoin="round"/>
<path d="M324.758 369.251L384.932 241.926L414.831 261.019L324.758 369.251Z" stroke="#212121" stroke-width="0.75" stroke-linecap="round" stroke-linejoin="round"/>
<path d="M285.725 432.264L414.831 261.019L344.921 396.389L285.725 432.264Z" stroke="#212121" stroke-width="0.75" stroke-linecap="round" stroke-linejoin="round"/>
<path d="M245.763 445.974L252.576 445.299L225.147 514.53L215.941 512.633L245.763 445.974Z" stroke="#212121" stroke-width="0.75" stroke-linecap="round" stroke-linejoin="round"/>
<path d="M111.286 450.715C110.652 450.663 110.023 450.862 109.534 451.269C109.171 451.57 108.904 451.973 108.767 452.426C108.631 452.879 108.632 453.362 108.768 453.814C108.905 454.267 109.173 454.669 109.537 454.97C109.901 455.271 110.347 455.458 110.816 455.507H111.054C111.608 455.504 112.143 455.309 112.568 454.954C112.812 454.756 113.015 454.511 113.163 454.233C113.311 453.956 113.402 453.651 113.43 453.338C113.461 453.025 113.431 452.709 113.34 452.407C113.249 452.106 113.1 451.825 112.901 451.582C112.702 451.338 112.457 451.136 112.179 450.988C111.902 450.839 111.599 450.747 111.286 450.715Z" fill="black"/>
<path d="M139.715 434.903C139.004 434.829 138.292 435.042 137.738 435.494C137.183 435.946 136.83 436.6 136.756 437.312C136.683 438.025 136.896 438.737 137.347 439.293C137.798 439.848 138.451 440.202 139.163 440.275C139.253 440.281 139.343 440.281 139.434 440.275C140.129 440.279 140.799 440.014 141.304 439.535C141.809 439.057 142.11 438.401 142.143 437.705C142.177 437.01 141.941 436.328 141.484 435.803C141.028 435.277 140.386 434.949 139.693 434.886L139.715 434.903Z" fill="black"/>
<path d="M80.9725 437.641C80.2603 437.568 79.5481 437.781 78.9927 438.233C78.4372 438.686 78.084 439.341 78.0108 440.054C77.9375 440.767 78.1502 441.48 78.602 442.036C79.0538 442.592 79.7077 442.946 80.4199 443.019H80.6852C81.3812 443.025 82.0525 442.761 82.5586 442.283C83.0648 441.804 83.3665 441.148 83.4008 440.452C83.435 439.756 83.1991 439.074 82.7424 438.548C82.2857 438.022 81.6436 437.693 80.9504 437.63L80.9725 437.641Z" fill="black"/>
<path d="M130.637 313.376C130.005 313.313 129.375 313.505 128.884 313.908C128.393 314.311 128.083 314.893 128.02 315.525C127.958 316.158 128.149 316.789 128.552 317.28C128.955 317.771 129.536 318.083 130.167 318.145H130.41C130.962 318.144 131.497 317.948 131.919 317.592C132.283 317.291 132.551 316.889 132.688 316.436C132.824 315.983 132.824 315.5 132.687 315.047C132.55 314.595 132.282 314.193 131.917 313.892C131.552 313.592 131.107 313.406 130.637 313.359V313.376Z" fill="black"/>
<path d="M173.969 332.779C173.649 332.733 173.323 332.753 173.012 332.836C172.7 332.92 172.408 333.066 172.154 333.266C171.9 333.465 171.689 333.715 171.533 333.998C171.378 334.281 171.281 334.593 171.25 334.915C171.218 335.237 171.252 335.562 171.349 335.87C171.446 336.179 171.604 336.464 171.814 336.71C172.024 336.955 172.282 337.156 172.572 337.299C172.861 337.442 173.177 337.525 173.499 337.543C173.58 337.548 173.661 337.548 173.742 337.543C174.348 337.53 174.927 337.287 175.361 336.864C175.796 336.44 176.053 335.868 176.082 335.261C176.111 334.655 175.909 334.06 175.516 333.597C175.124 333.135 174.571 332.838 173.969 332.768V332.779Z" fill="black"/>
<path d="M193.005 286.951C192.692 286.919 192.376 286.949 192.075 287.04C191.774 287.131 191.494 287.28 191.251 287.48C191.008 287.679 190.807 287.925 190.66 288.203C190.512 288.48 190.421 288.785 190.391 289.098C190.36 289.412 190.393 289.73 190.488 290.031C190.583 290.333 190.738 290.612 190.944 290.852C191.142 291.096 191.387 291.297 191.664 291.446C191.941 291.594 192.244 291.685 192.557 291.715C192.636 291.72 192.715 291.72 192.795 291.715C193.401 291.703 193.981 291.462 194.416 291.039C194.851 290.616 195.109 290.043 195.139 289.436C195.168 288.829 194.967 288.234 194.575 287.771C194.182 287.307 193.629 287.011 193.027 286.94L193.005 286.951Z" fill="black"/>
<path d="M300.892 279.759C300.578 279.731 300.262 279.766 299.962 279.861C299.661 279.956 299.382 280.109 299.141 280.312C298.776 280.613 298.509 281.015 298.372 281.467C298.235 281.92 298.236 282.403 298.373 282.856C298.51 283.309 298.778 283.711 299.142 284.011C299.507 284.312 299.953 284.497 300.423 284.544C300.502 284.55 300.581 284.55 300.66 284.544C301.267 284.533 301.846 284.291 302.281 283.868C302.717 283.445 302.975 282.872 303.005 282.266C303.034 281.659 302.832 281.064 302.44 280.6C302.048 280.137 301.495 279.84 300.892 279.77V279.759Z" fill="black"/>
<path d="M253.919 323.058C253.605 323.03 253.289 323.064 252.988 323.159C252.687 323.254 252.408 323.408 252.167 323.611C251.924 323.809 251.722 324.055 251.574 324.332C251.426 324.609 251.334 324.914 251.305 325.227C251.274 325.54 251.305 325.856 251.396 326.157C251.487 326.458 251.636 326.738 251.835 326.981C252.034 327.224 252.279 327.425 252.556 327.573C252.833 327.721 253.137 327.813 253.449 327.844C253.528 327.85 253.608 327.85 253.687 327.844C254.302 327.844 254.893 327.608 255.339 327.184C255.784 326.759 256.049 326.179 256.079 325.564C256.109 324.95 255.901 324.347 255.499 323.881C255.097 323.415 254.531 323.123 253.919 323.063V323.058Z" fill="black"/>
<path d="M259.881 417.585C259.567 417.557 259.251 417.591 258.95 417.686C258.649 417.781 258.37 417.935 258.13 418.139C257.765 418.439 257.497 418.841 257.361 419.294C257.224 419.747 257.224 420.23 257.361 420.683C257.498 421.135 257.766 421.537 258.131 421.838C258.496 422.138 258.941 422.324 259.411 422.371H259.649C260.256 422.36 260.835 422.118 261.27 421.695C261.705 421.272 261.964 420.699 261.993 420.092C262.023 419.486 261.821 418.89 261.429 418.427C261.037 417.964 260.484 417.667 259.881 417.596V417.585Z" fill="black"/>
<path d="M248.852 366.269C248.539 366.238 248.224 366.269 247.923 366.36C247.622 366.452 247.342 366.602 247.099 366.801C246.856 367.001 246.655 367.246 246.507 367.524C246.359 367.801 246.267 368.105 246.236 368.418C246.205 368.732 246.236 369.048 246.327 369.349C246.418 369.65 246.568 369.93 246.767 370.173C246.966 370.417 247.212 370.618 247.489 370.767C247.766 370.915 248.07 371.007 248.382 371.038H248.62C249.173 371.035 249.709 370.839 250.134 370.485C250.5 370.185 250.77 369.782 250.907 369.328C251.045 368.875 251.046 368.39 250.908 367.937C250.771 367.483 250.502 367.08 250.136 366.779C249.77 366.478 249.323 366.293 248.852 366.247V366.269Z" fill="black"/>
<path d="M293.411 354.019C292.779 353.959 292.15 354.152 291.66 354.555C291.17 354.959 290.86 355.54 290.797 356.172C290.735 356.803 290.926 357.433 291.328 357.924C291.73 358.415 292.31 358.726 292.941 358.789H293.179C293.793 358.789 294.385 358.553 294.83 358.128C295.276 357.704 295.541 357.124 295.571 356.509C295.601 355.894 295.393 355.291 294.991 354.826C294.588 354.36 294.023 354.067 293.411 354.008V354.019Z" fill="black"/>
<path d="M240.978 253.627C241.025 253.156 240.931 252.681 240.708 252.263C240.486 251.845 240.144 251.503 239.727 251.279C239.31 251.055 238.836 250.96 238.365 251.006C237.895 251.052 237.448 251.236 237.082 251.536C236.716 251.837 236.447 252.239 236.309 252.692C236.171 253.145 236.17 253.629 236.307 254.082C236.443 254.536 236.711 254.939 237.077 255.24C237.442 255.541 237.888 255.727 238.359 255.774H238.596C239.188 255.773 239.758 255.554 240.198 255.157C240.638 254.761 240.915 254.216 240.978 253.627Z" fill="black"/>
<path d="M245.835 274.425C245.914 274.43 245.994 274.43 246.073 274.425C246.665 274.424 247.236 274.202 247.675 273.804C248.114 273.405 248.39 272.858 248.449 272.267C248.48 271.954 248.449 271.638 248.358 271.337C248.268 271.036 248.118 270.756 247.919 270.513C247.72 270.27 247.475 270.069 247.198 269.921C246.921 269.773 246.617 269.681 246.305 269.65C245.985 269.605 245.659 269.624 245.348 269.708C245.036 269.791 244.744 269.937 244.49 270.137C244.236 270.337 244.025 270.586 243.869 270.869C243.714 271.153 243.617 271.465 243.586 271.786C243.554 272.108 243.588 272.433 243.685 272.742C243.782 273.05 243.94 273.336 244.15 273.581C244.36 273.827 244.618 274.027 244.908 274.17C245.197 274.313 245.513 274.396 245.835 274.414V274.425Z" fill="black"/>
<path d="M235.563 296.003C234.851 295.929 234.139 296.142 233.583 296.595C233.028 297.047 232.674 297.702 232.601 298.415C232.528 299.128 232.741 299.841 233.192 300.397C233.644 300.954 234.298 301.307 235.01 301.381H235.281C235.977 301.385 236.647 301.12 237.152 300.641C237.657 300.162 237.957 299.506 237.991 298.811C238.024 298.115 237.788 297.434 237.332 296.908C236.875 296.383 236.234 296.055 235.541 295.992L235.563 296.003Z" fill="black"/>
<path d="M226.617 393.59C226.265 393.553 225.909 393.587 225.569 393.688C225.23 393.79 224.914 393.957 224.639 394.181C224.364 394.405 224.136 394.68 223.968 394.992C223.8 395.304 223.694 395.646 223.658 395.999C223.622 396.352 223.655 396.708 223.756 397.048C223.858 397.388 224.025 397.704 224.248 397.98C224.472 398.255 224.747 398.483 225.059 398.652C225.37 398.82 225.712 398.926 226.064 398.962H226.33C226.999 398.96 227.643 398.71 228.139 398.261C228.635 397.811 228.947 397.194 229.015 396.528C229.08 395.821 228.865 395.117 228.417 394.567C227.968 394.018 227.322 393.666 226.617 393.59Z" fill="black"/>
<path d="M324.608 366.319C323.897 366.245 323.185 366.458 322.631 366.91C322.076 367.362 321.723 368.016 321.649 368.728C321.576 369.441 321.789 370.153 322.24 370.709C322.691 371.264 323.344 371.618 324.056 371.691C324.144 371.696 324.233 371.696 324.321 371.691C324.991 371.69 325.636 371.44 326.131 370.989C326.626 370.538 326.936 369.918 327.001 369.251C327.065 368.546 326.85 367.844 326.402 367.296C325.955 366.748 325.311 366.397 324.608 366.319Z" fill="black"/>
<path d="M151.833 320.64C151.48 320.604 151.124 320.637 150.784 320.739C150.445 320.841 150.128 321.008 149.853 321.232C149.578 321.456 149.35 321.732 149.182 322.044C149.013 322.357 148.908 322.699 148.871 323.052C148.835 323.406 148.869 323.762 148.97 324.102C149.072 324.443 149.239 324.759 149.463 325.035C149.686 325.31 149.962 325.539 150.274 325.707C150.586 325.876 150.928 325.982 151.281 326.018H151.546C152.215 326.016 152.859 325.766 153.355 325.317C153.851 324.867 154.163 324.25 154.231 323.584C154.296 322.876 154.082 322.171 153.633 321.621C153.185 321.071 152.538 320.718 151.833 320.64Z" fill="black"/>
<path d="M176.041 271.299C175.689 271.263 175.333 271.296 174.993 271.398C174.654 271.499 174.338 271.666 174.063 271.89C173.788 272.114 173.56 272.39 173.392 272.702C173.224 273.014 173.118 273.356 173.082 273.708C173.046 274.061 173.079 274.418 173.18 274.758C173.282 275.097 173.449 275.414 173.672 275.689C173.896 275.964 174.171 276.192 174.483 276.361C174.794 276.53 175.136 276.635 175.488 276.671C175.578 276.677 175.669 276.677 175.759 276.671C176.455 276.676 177.125 276.411 177.63 275.932C178.135 275.453 178.435 274.797 178.469 274.101C178.502 273.406 178.266 272.724 177.81 272.199C177.353 271.674 176.711 271.345 176.019 271.282L176.041 271.299Z" fill="black"/>
<path d="M385.169 239.569C384.85 239.523 384.524 239.542 384.212 239.626C383.9 239.71 383.608 239.856 383.354 240.055C383.1 240.255 382.889 240.504 382.734 240.788C382.578 241.071 382.482 241.383 382.45 241.705C382.418 242.027 382.452 242.352 382.549 242.66C382.646 242.968 382.804 243.254 383.015 243.499C383.225 243.745 383.482 243.945 383.772 244.088C384.062 244.232 384.377 244.314 384.7 244.332C384.779 244.338 384.858 244.338 384.937 244.332C385.544 244.321 386.123 244.079 386.558 243.656C386.994 243.233 387.252 242.66 387.282 242.053C387.311 241.447 387.109 240.852 386.717 240.388C386.325 239.925 385.772 239.628 385.169 239.558V239.569Z" fill="black"/>
<path d="M456.174 105.421C455.54 105.366 454.91 105.565 454.422 105.975C454.057 106.275 453.79 106.677 453.653 107.13C453.516 107.583 453.517 108.066 453.654 108.519C453.791 108.971 454.059 109.373 454.424 109.674C454.788 109.974 455.234 110.16 455.704 110.207C455.783 110.212 455.862 110.212 455.941 110.207C456.495 110.205 457.031 110.009 457.455 109.654C457.82 109.353 458.088 108.951 458.224 108.498C458.361 108.045 458.361 107.562 458.224 107.11C458.087 106.657 457.819 106.255 457.454 105.955C457.089 105.654 456.644 105.469 456.174 105.421Z" fill="black"/>
<path d="M415.582 258.684C415.112 258.639 414.639 258.733 414.222 258.957C413.806 259.18 413.465 259.522 413.242 259.939C413.019 260.356 412.925 260.83 412.97 261.301C413.016 261.772 413.2 262.219 413.499 262.585C413.697 262.83 413.941 263.032 414.218 263.18C414.496 263.328 414.8 263.42 415.113 263.448C415.194 263.453 415.275 263.453 415.356 263.448C415.97 263.447 416.561 263.21 417.005 262.785C417.449 262.36 417.713 261.78 417.742 261.166C417.772 260.551 417.564 259.949 417.161 259.484C416.759 259.019 416.194 258.727 415.582 258.668V258.684Z" fill="black"/>
<path d="M487.393 135.885C487.036 135.84 486.673 135.867 486.326 135.965C485.979 136.063 485.656 136.229 485.374 136.454C485.093 136.68 484.859 136.959 484.687 137.276C484.516 137.593 484.409 137.942 484.374 138.301C484.339 138.66 484.376 139.022 484.483 139.367C484.59 139.711 484.765 140.031 484.998 140.306C485.23 140.582 485.516 140.808 485.837 140.971C486.158 141.134 486.509 141.232 486.868 141.257C486.957 141.262 487.045 141.262 487.134 141.257C487.803 141.255 488.447 141.004 488.942 140.553C489.437 140.102 489.748 139.484 489.814 138.817C489.882 138.105 489.665 137.394 489.211 136.842C488.987 136.57 488.71 136.345 488.398 136.181C488.086 136.016 487.745 135.916 487.393 135.885Z" fill="black"/>
<path d="M472.524 31.249C472.171 31.2131 471.815 31.2474 471.475 31.3499C471.135 31.4525 470.819 31.6212 470.545 31.8464C470.271 32.0716 470.044 32.3488 469.877 32.6622C469.71 32.9756 469.607 33.3189 469.573 33.6724C469.507 34.3847 469.724 35.0946 470.177 35.6477C470.63 36.2009 471.283 36.5527 471.993 36.6269H472.264C472.96 36.6311 473.63 36.3661 474.135 35.8872C474.64 35.4084 474.94 34.7526 474.974 34.0571C475.007 33.3615 474.771 32.6798 474.315 32.1545C473.858 31.6292 473.217 31.3008 472.524 31.238V31.249Z" fill="black"/>
<path d="M502.771 148.654C502.522 148.349 502.201 148.11 501.838 147.958C501.474 147.807 501.079 147.748 500.687 147.786C500.295 147.824 499.918 147.959 499.591 148.177C499.263 148.396 498.994 148.693 498.809 149.041C498.623 149.388 498.526 149.777 498.526 150.171C498.526 150.565 498.623 150.953 498.809 151.301C498.995 151.649 499.264 151.945 499.592 152.164C499.919 152.382 500.296 152.517 500.688 152.555C500.765 152.56 500.843 152.56 500.92 152.555C501.373 152.555 501.816 152.426 502.199 152.183C502.581 151.941 502.887 151.595 503.081 151.185C503.275 150.775 503.348 150.319 503.294 149.869C503.239 149.419 503.058 148.994 502.771 148.643V148.654Z" fill="black"/>
<path d="M267.921 186.62C267.601 186.574 267.275 186.593 266.962 186.677C266.65 186.76 266.357 186.906 266.103 187.106C265.848 187.306 265.637 187.556 265.482 187.84C265.326 188.124 265.23 188.436 265.198 188.759C265.167 189.081 265.201 189.406 265.299 189.715C265.397 190.024 265.556 190.309 265.767 190.555C265.978 190.8 266.237 191 266.527 191.143C266.818 191.285 267.134 191.367 267.457 191.384C267.536 191.389 267.615 191.389 267.694 191.384C268.324 191.409 268.938 191.184 269.402 190.758C269.866 190.331 270.144 189.739 270.173 189.109C270.203 188.479 269.983 187.863 269.561 187.394C269.14 186.926 268.55 186.644 267.921 186.609V186.62Z" fill="black"/>
<path d="M77.0935 618.856C76.4598 618.803 75.8308 619.002 75.3419 619.409C74.9773 619.71 74.7098 620.112 74.5731 620.565C74.4364 621.018 74.4366 621.501 74.5737 621.953C74.7108 622.406 74.9787 622.808 75.3435 623.108C75.7083 623.409 76.1538 623.595 76.6238 623.642C76.7029 623.647 76.7823 623.647 76.8614 623.642C77.4679 623.63 78.0474 623.389 78.4826 622.966C78.9178 622.542 79.1763 621.97 79.2058 621.363C79.2353 620.756 79.0336 620.161 78.6414 619.698C78.2493 619.235 77.696 618.938 77.0935 618.867V618.856Z" fill="black"/>
<path d="M118.398 663.649C117.926 663.603 117.452 663.697 117.034 663.92C116.617 664.144 116.275 664.487 116.051 664.905C115.828 665.323 115.734 665.798 115.781 666.27C115.828 666.742 116.014 667.189 116.314 667.555C116.514 667.799 116.76 668.001 117.038 668.149C117.315 668.297 117.62 668.389 117.933 668.419H118.171C118.785 668.418 119.376 668.18 119.82 667.755C120.265 667.331 120.529 666.751 120.558 666.136C120.587 665.522 120.379 664.92 119.977 664.455C119.575 663.99 119.009 663.697 118.398 663.638V663.649Z" fill="black"/>
<path d="M225.28 512.135C224.646 512.082 224.017 512.281 223.528 512.688C223.164 512.989 222.896 513.391 222.759 513.844C222.623 514.296 222.623 514.779 222.76 515.232C222.897 515.685 223.165 516.087 223.53 516.387C223.895 516.687 224.34 516.873 224.81 516.92H225.048C225.663 516.921 226.254 516.685 226.699 516.26C227.145 515.836 227.41 515.256 227.44 514.641C227.47 514.026 227.262 513.423 226.86 512.958C226.458 512.492 225.892 512.199 225.28 512.14V512.135Z" fill="black"/>
<path d="M339.124 419.511C338.805 419.465 338.479 419.485 338.167 419.568C337.855 419.652 337.563 419.798 337.309 419.998C337.055 420.197 336.844 420.446 336.689 420.73C336.533 421.013 336.437 421.325 336.405 421.647C336.373 421.969 336.407 422.294 336.504 422.602C336.601 422.91 336.759 423.196 336.97 423.441C337.18 423.687 337.437 423.887 337.727 424.03C338.017 424.174 338.332 424.257 338.655 424.274H338.892C339.485 424.273 340.056 424.052 340.495 423.653C340.934 423.255 341.209 422.707 341.268 422.117C341.299 421.804 341.269 421.488 341.178 421.187C341.087 420.886 340.938 420.606 340.739 420.363C340.539 420.119 340.294 419.918 340.017 419.77C339.74 419.622 339.437 419.53 339.124 419.5V419.511Z" fill="black"/>
<path d="M241.79 494.208C242.42 494.233 243.033 494.008 243.498 493.582C243.962 493.156 244.239 492.564 244.269 491.934C244.299 491.304 244.079 490.687 243.657 490.219C243.235 489.751 242.646 489.469 242.017 489.434C241.383 489.382 240.755 489.581 240.265 489.987C239.901 490.288 239.633 490.69 239.496 491.143C239.36 491.595 239.36 492.078 239.497 492.531C239.634 492.984 239.902 493.386 240.267 493.686C240.632 493.987 241.077 494.172 241.547 494.22L241.79 494.208Z" fill="black"/>
<path d="M289.836 512.998C289.863 512.683 289.828 512.367 289.734 512.066C289.639 511.765 289.486 511.486 289.283 511.244C289.085 511 288.84 510.798 288.563 510.65C288.286 510.502 287.982 510.41 287.67 510.381C287.036 510.328 286.407 510.526 285.918 510.934C285.554 511.236 285.287 511.638 285.151 512.091C285.015 512.544 285.015 513.027 285.152 513.48C285.289 513.932 285.556 514.335 285.921 514.636C286.285 514.937 286.73 515.123 287.2 515.172H287.438C288.031 515.17 288.602 514.947 289.041 514.548C289.479 514.148 289.755 513.6 289.814 513.009L289.836 512.998Z" fill="black"/>
<path d="M285.741 434.543C286.356 434.544 286.947 434.307 287.393 433.883C287.838 433.459 288.103 432.879 288.133 432.264C288.163 431.649 287.955 431.046 287.553 430.58C287.151 430.115 286.585 429.822 285.973 429.763C285.342 429.704 284.714 429.896 284.224 430.298C283.733 430.7 283.421 431.279 283.354 431.91C283.295 432.542 283.488 433.172 283.891 433.663C284.293 434.154 284.873 434.466 285.503 434.532L285.741 434.543Z" fill="black"/>
<path d="M126.211 721.378C125.577 721.326 124.948 721.524 124.459 721.931C124.215 722.129 124.013 722.374 123.865 722.652C123.717 722.929 123.626 723.234 123.597 723.547C123.536 724.179 123.727 724.809 124.129 725.3C124.531 725.79 125.11 726.101 125.741 726.164H125.979C126.594 726.165 127.185 725.928 127.63 725.504C128.076 725.079 128.341 724.5 128.371 723.885C128.401 723.27 128.193 722.667 127.791 722.201C127.389 721.736 126.823 721.443 126.211 721.384V721.378Z" fill="black"/>
<path d="M27.4789 671.644C26.8473 671.582 26.2168 671.773 25.7261 672.176C25.2355 672.579 24.9248 673.161 24.8625 673.794C24.8003 674.426 24.9914 675.057 25.394 675.549C25.7966 676.04 26.3776 676.351 27.0092 676.413H27.2468C27.8617 676.414 28.4532 676.177 28.8986 675.753C29.344 675.329 29.6092 674.749 29.639 674.134C29.6689 673.519 29.4611 672.916 29.0589 672.451C28.6567 671.985 28.0909 671.692 27.4789 671.633V671.644Z" fill="black"/>
<path d="M67.4126 701.897C66.7825 701.838 66.1546 702.031 65.6653 702.433C65.1759 702.835 64.8647 703.414 64.799 704.044C64.7684 704.358 64.8016 704.676 64.8965 704.977C64.9915 705.279 65.1462 705.558 65.3516 705.798C65.5497 706.042 65.7944 706.245 66.0714 706.394C66.3483 706.543 66.6521 706.636 66.9651 706.667H67.2027C67.8175 706.667 68.409 706.431 68.8544 706.006C69.2998 705.582 69.565 705.002 69.5948 704.387C69.6247 703.772 69.417 703.169 69.0148 702.704C68.6126 702.238 68.0468 701.945 67.4347 701.886L67.4126 701.897Z" fill="black"/>
<path d="M183.119 710.777C182.488 710.715 181.857 710.906 181.366 711.31C180.876 711.713 180.565 712.294 180.503 712.927C180.441 713.559 180.632 714.191 181.034 714.682C181.437 715.173 182.018 715.484 182.65 715.547H182.893C183.445 715.546 183.979 715.35 184.401 714.993C184.645 714.795 184.847 714.55 184.996 714.273C185.144 713.996 185.237 713.692 185.268 713.379C185.3 713.066 185.269 712.75 185.178 712.448C185.087 712.147 184.938 711.867 184.738 711.624C184.33 711.14 183.749 710.836 183.119 710.777Z" fill="black"/>
<path d="M93.9356 645.391C93.3021 645.34 92.6737 645.539 92.184 645.944C91.8193 646.246 91.5518 646.648 91.4153 647.101C91.2789 647.554 91.2795 648.038 91.4173 648.491C91.555 648.944 91.8236 649.345 92.1892 649.646C92.5548 649.946 93.001 650.131 93.4715 650.177H93.7036C94.3184 650.178 94.9099 649.941 95.3553 649.517C95.8007 649.092 96.0659 648.513 96.0957 647.898C96.1256 647.283 95.9179 646.68 95.5157 646.214C95.1135 645.748 94.5476 645.456 93.9356 645.397V645.391Z" fill="black"/>
<path d="M290.123 541.657C289.489 541.605 288.86 541.804 288.371 542.211C288.007 542.512 287.739 542.914 287.603 543.366C287.466 543.819 287.466 544.302 287.603 544.755C287.74 545.207 288.008 545.609 288.373 545.91C288.738 546.21 289.183 546.396 289.653 546.443C289.732 546.449 289.812 546.449 289.891 546.443C290.497 546.432 291.077 546.19 291.512 545.767C291.947 545.344 292.206 544.771 292.235 544.164C292.265 543.558 292.063 542.963 291.671 542.499C291.279 542.036 290.725 541.739 290.123 541.669V541.657Z" fill="black"/>
<path d="M145.031 693.189C144.399 693.126 143.769 693.318 143.278 693.721C142.788 694.124 142.477 694.706 142.415 695.338C142.352 695.971 142.544 696.602 142.946 697.093C143.349 697.585 143.93 697.896 144.561 697.958H144.805C145.356 697.954 145.89 697.759 146.313 697.405C146.678 697.104 146.945 696.702 147.082 696.249C147.219 695.796 147.218 695.313 147.081 694.861C146.944 694.408 146.676 694.006 146.311 693.706C145.947 693.405 145.501 693.219 145.031 693.172V693.189Z" fill="black"/>
<path d="M32.9714 641.175C32.3379 641.125 31.7098 641.323 31.2198 641.728C30.8559 642.03 30.5891 642.433 30.4528 642.885C30.3165 643.338 30.3169 643.821 30.4538 644.274C30.5908 644.727 30.8582 645.129 31.2225 645.43C31.5868 645.731 32.0318 645.918 32.5017 645.966H32.7393C33.3324 645.964 33.9035 645.741 34.3424 645.342C34.7812 644.942 35.0566 644.394 35.1153 643.803C35.1466 643.49 35.1159 643.174 35.0251 642.873C34.9342 642.572 34.7849 642.292 34.5857 642.049C34.3866 641.806 34.1414 641.605 33.8644 641.457C33.5874 641.309 33.2839 641.217 32.9714 641.186V641.175Z" fill="black"/>
<path d="M15.8254 600.332C15.1938 600.27 14.5633 600.461 14.0726 600.865C13.5819 601.268 13.2713 601.849 13.209 602.482C13.1467 603.114 13.3379 603.746 13.7405 604.237C14.1431 604.728 14.7241 605.039 15.3557 605.102H15.5933C16.1469 605.099 16.6822 604.903 17.1073 604.548C17.3517 604.35 17.5538 604.106 17.7019 603.828C17.85 603.55 17.9409 603.246 17.9693 602.933C18.0279 602.304 17.8352 601.677 17.4334 601.189C17.0316 600.702 16.4535 600.394 15.8254 600.332Z" fill="black"/>
<path d="M71.0706 658.598C70.7185 658.559 70.3623 658.592 70.0234 658.695C69.6844 658.798 69.3696 658.968 69.0979 659.195C68.6856 659.534 68.3827 659.987 68.2276 660.498C68.0724 661.009 68.072 661.554 68.2264 662.065C68.3807 662.576 68.6829 663.03 69.0947 663.369C69.5066 663.708 70.0096 663.917 70.5401 663.97H70.8109C71.5064 663.974 72.1766 663.709 72.6815 663.231C73.1865 662.752 73.4871 662.096 73.5206 661.4C73.5541 660.705 73.318 660.023 72.8614 659.498C72.4048 658.973 71.7632 658.644 71.0706 658.581V658.598Z" fill="black"/>
<path d="M15.8751 561.354C15.9123 561.002 15.8787 560.645 15.7762 560.306C15.6737 559.967 15.5044 559.652 15.2783 559.379C14.994 559.042 14.6313 558.779 14.2222 558.615C13.8131 558.45 13.3699 558.389 12.9315 558.436C12.4932 558.483 12.073 558.637 11.7077 558.884C11.3425 559.131 11.0434 559.464 10.8365 559.854C10.6297 560.244 10.5215 560.678 10.5214 561.12C10.5212 561.561 10.6292 561.996 10.8358 562.386C11.0424 562.776 11.3413 563.109 11.7064 563.357C12.0715 563.604 12.4916 563.758 12.93 563.805C13.0183 563.811 13.1069 563.811 13.1952 563.805C13.8668 563.805 14.5141 563.554 15.01 563.1C15.5059 562.647 15.8144 562.024 15.8751 561.354Z" fill="black"/>
<path d="M39.4253 568.63C38.7138 568.556 38.0024 568.769 37.4475 569.221C36.8925 569.673 36.5396 570.327 36.4663 571.039C36.3931 571.752 36.6054 572.464 37.0567 573.02C37.508 573.575 38.1613 573.929 38.8728 574.002C38.9629 574.007 39.0533 574.007 39.1435 574.002C39.839 574.006 40.5092 573.741 41.0142 573.262C41.5191 572.783 41.8197 572.128 41.8533 571.432C41.8868 570.737 41.6506 570.055 41.194 569.53C40.7375 569.004 40.0959 568.676 39.4032 568.613L39.4253 568.63Z" fill="black"/>
<path d="M213.919 649.696C213.207 649.622 212.495 649.835 211.939 650.288C211.384 650.74 211.031 651.395 210.957 652.108C210.884 652.821 211.097 653.534 211.548 654.09C212 654.646 212.654 655 213.366 655.073H213.637C214.333 655.078 215.003 654.813 215.508 654.334C216.013 653.855 216.313 653.199 216.347 652.504C216.381 651.808 216.144 651.126 215.688 650.601C215.231 650.076 214.59 649.747 213.897 649.685L213.919 649.696Z" fill="black"/>
<path d="M244.122 518.724C243.77 518.688 243.414 518.721 243.074 518.823C242.735 518.924 242.419 519.092 242.144 519.315C241.87 519.539 241.641 519.815 241.473 520.127C241.305 520.439 241.199 520.781 241.163 521.134C241.127 521.486 241.16 521.843 241.262 522.183C241.363 522.522 241.53 522.839 241.754 523.114C241.977 523.389 242.252 523.618 242.564 523.786C242.876 523.955 243.217 524.06 243.57 524.096H243.835C244.505 524.094 245.15 523.844 245.646 523.393C246.142 522.942 246.453 522.324 246.52 521.656C246.555 521.304 246.521 520.947 246.418 520.608C246.315 520.269 246.146 519.953 245.922 519.679C245.697 519.405 245.42 519.178 245.107 519.011C244.795 518.845 244.453 518.742 244.1 518.708L244.122 518.724Z" fill="black"/>
<path d="M148.639 664.142C147.927 664.068 147.215 664.281 146.659 664.734C146.104 665.186 145.751 665.841 145.678 666.554C145.604 667.267 145.817 667.98 146.269 668.536C146.721 669.093 147.375 669.446 148.087 669.52H148.352C149.021 669.518 149.665 669.268 150.161 668.818C150.657 668.369 150.969 667.751 151.037 667.085C151.104 666.377 150.89 665.672 150.441 665.121C149.992 664.57 149.345 664.218 148.639 664.142Z" fill="black"/>
<path d="M184.655 634.237C184.303 634.201 183.946 634.234 183.607 634.336C183.267 634.437 182.951 634.605 182.676 634.829C182.401 635.053 182.172 635.329 182.004 635.641C181.835 635.954 181.73 636.296 181.694 636.649C181.657 637.002 181.691 637.359 181.792 637.699C181.894 638.04 182.061 638.356 182.285 638.632C182.509 638.907 182.784 639.136 183.096 639.304C183.408 639.473 183.75 639.579 184.103 639.615H184.368C185.064 639.621 185.735 639.357 186.241 638.878C186.748 638.4 187.049 637.744 187.084 637.048C187.118 636.352 186.882 635.669 186.425 635.143C185.969 634.617 185.326 634.289 184.633 634.226L184.655 634.237Z" fill="black"/>
<path d="M274.773 532.672C274.42 532.636 274.064 532.669 273.725 532.771C273.386 532.872 273.07 533.04 272.795 533.263C272.52 533.487 272.292 533.763 272.124 534.075C271.955 534.387 271.85 534.729 271.814 535.082C271.777 535.434 271.811 535.791 271.912 536.131C272.014 536.471 272.181 536.787 272.404 537.062C272.628 537.337 272.903 537.566 273.215 537.734C273.526 537.903 273.868 538.008 274.22 538.045C274.312 538.05 274.404 538.05 274.496 538.045C275.192 538.049 275.862 537.784 276.367 537.305C276.872 536.826 277.173 536.17 277.206 535.475C277.24 534.779 277.004 534.098 276.547 533.572C276.09 533.047 275.449 532.718 274.756 532.656L274.773 532.672Z" fill="black"/>
<path d="M62.6551 578.428C62.1897 578.388 61.7226 578.485 61.3116 578.707C60.9005 578.929 60.5634 579.267 60.3419 579.679C60.1204 580.091 60.0242 580.558 60.065 581.024C60.1059 581.49 60.2821 581.934 60.5719 582.301C60.7703 582.545 61.0152 582.746 61.2921 582.895C61.5691 583.043 61.8728 583.134 62.1854 583.164H62.4285C63.0205 583.163 63.5909 582.941 64.029 582.543C64.467 582.144 64.7415 581.596 64.799 581.006C64.8296 580.692 64.7965 580.374 64.7015 580.073C64.6066 579.772 64.4518 579.492 64.2465 579.252C63.8441 578.78 63.2728 578.484 62.6551 578.428Z" fill="black"/>
<path d="M235.425 172.926H235.662C236.255 172.925 236.826 172.704 237.265 172.305C237.704 171.907 237.98 171.359 238.038 170.769C238.069 170.454 238.036 170.137 237.941 169.835C237.846 169.534 237.691 169.255 237.486 169.015C237.237 168.709 236.916 168.47 236.552 168.319C236.189 168.168 235.793 168.108 235.401 168.146C235.009 168.185 234.633 168.319 234.305 168.538C233.978 168.757 233.709 169.053 233.523 169.401C233.338 169.749 233.241 170.137 233.241 170.532C233.241 170.926 233.338 171.314 233.524 171.662C233.71 172.009 233.979 172.306 234.306 172.524C234.634 172.743 235.011 172.877 235.403 172.915L235.425 172.926Z" fill="black"/>
<path d="M418.787 62.4649C418.467 62.4192 418.142 62.4388 417.83 62.5225C417.518 62.6061 417.226 62.7522 416.972 62.9518C416.718 63.1514 416.507 63.4004 416.352 63.6839C416.196 63.9674 416.1 64.2794 416.068 64.6012C416.036 64.923 416.07 65.2479 416.167 65.5563C416.264 65.8647 416.422 66.1502 416.633 66.3957C416.843 66.6412 417.1 66.8416 417.39 66.9847C417.68 67.1279 417.995 67.2108 418.317 67.2286C418.398 67.2341 418.48 67.2341 418.561 67.2286C419.167 67.2159 419.745 66.9733 420.18 66.5498C420.614 66.1263 420.872 65.5535 420.9 64.9471C420.929 64.3408 420.727 63.7461 420.335 63.2833C419.942 62.8205 419.389 62.524 418.787 62.4538V62.4649Z" fill="black"/>
<path d="M345.7 68.3296C345.347 68.2933 344.991 68.3269 344.651 68.4284C344.311 68.53 343.995 68.6976 343.72 68.9216C343.445 69.1456 343.217 69.4216 343.048 69.734C342.88 70.0463 342.774 70.3888 342.738 70.7419C342.702 71.095 342.735 71.4518 342.837 71.792C342.938 72.1321 343.105 72.4489 343.329 72.7243C343.553 72.9997 343.829 73.2282 344.14 73.3969C344.452 73.5656 344.794 73.6711 345.147 73.7075H345.418C346.087 73.7102 346.733 73.4618 347.228 73.0111C347.723 72.5604 348.031 71.9403 348.092 71.2731C348.129 70.9206 348.096 70.5643 347.993 70.225C347.891 69.8858 347.722 69.5706 347.496 69.2979C347.047 68.7517 346.402 68.4039 345.7 68.3296Z" fill="black"/>
<path d="M403.166 41.2412C402.814 41.2061 402.458 41.241 402.119 41.3438C401.78 41.4467 401.465 41.6156 401.191 41.8407C400.918 42.0658 400.691 42.3428 400.525 42.6558C400.358 42.9688 400.255 43.3116 400.221 43.6646C400.184 44.017 400.217 44.3733 400.32 44.7126C400.422 45.0518 400.592 45.3671 400.818 45.6398C401.042 45.9154 401.319 46.1438 401.632 46.3119C401.945 46.48 402.288 46.5844 402.641 46.6191H402.906C403.602 46.6233 404.272 46.3583 404.777 45.8794C405.282 45.4005 405.583 44.7448 405.616 44.0493C405.65 43.3537 405.414 42.672 404.957 42.1467C404.5 41.6214 403.859 41.293 403.166 41.2301V41.2412Z" fill="black"/>
</g>
<defs>
<clipPath id="clip0_110_4757">
<rect width="520" height="739" fill="white"/>
</clipPath>
</defs>
</svg>
