<svg width="40" height="40" viewBox="0 0 40 40" fill="none" xmlns="http://www.w3.org/2000/svg">
<path d="M19.9047 24C22.1139 24 23.9047 22.2091 23.9047 20C23.9047 17.7909 22.1139 16 19.9047 16C17.6956 16 15.9047 17.7909 15.9047 20C15.9047 22.2091 17.6956 24 19.9047 24Z" fill="#0371E2"/>
<path fill-rule="evenodd" clip-rule="evenodd" d="M5.85786 5.85786C9.60859 2.10714 14.6957 2.88138e-07 20 0C22.6264 -2.88796e-07 25.2272 0.517315 27.6537 1.52241C30.0802 2.5275 32.285 4.00069 34.1421 5.85786C35.9993 7.71503 37.4725 9.91982 38.4776 12.3463C39.4827 14.7728 40 17.3736 40 20C40 22.6264 39.4827 25.2272 38.4776 27.6537C37.4725 30.0802 35.9993 32.285 34.1421 34.1421C32.285 35.9993 30.0802 37.4725 27.6537 38.4776C25.2272 39.4827 22.6264 40 20 40C14.6957 40 9.60859 37.8929 5.85786 34.1421C2.10714 30.3914 -1.12328e-07 25.3043 0 20C1.12328e-07 14.6957 2.10714 9.60859 5.85786 5.85786ZM20 36C22.1012 36 24.1817 35.5861 26.1229 34.7821C28.0641 33.978 29.828 32.7994 31.3137 31.3137C32.7994 29.828 33.978 28.0641 34.7821 26.1229C35.5861 24.1817 36 22.1011 36 20C36 17.8988 35.5861 15.8183 34.7821 13.8771C33.978 11.9359 32.7994 10.172 31.3137 8.68629C29.828 7.20055 28.0641 6.022 26.1229 5.21793C24.1817 4.41385 22.1011 4 20 4V8C26.6274 8 32 13.3726 32 20C32 26.6274 26.6274 32 20 32V36ZM12.687 20C12.687 24.0388 15.9612 27.313 20 27.313C24.0388 27.313 27.313 24.0388 27.313 20C27.313 15.9612 24.0388 12.687 20 12.687C15.9612 12.687 12.687 15.9612 12.687 20Z" fill="#0371E2"/>
</svg>
