<svg width="174" height="50" viewBox="0 0 174 50" fill="none" xmlns="http://www.w3.org/2000/svg">
<rect x="0.5" y="0.5" width="173" height="49" rx="4.5" fill="black"/>
<path d="M86.4255 27.1183C83.2766 27.1183 80.7837 29.4615 80.7837 32.716C80.7837 35.8402 83.2766 38.3136 86.4255 38.3136C89.5745 38.3136 92.0674 35.9704 92.0674 32.716C92.0674 29.3314 89.5745 27.1183 86.4255 27.1183ZM86.4255 35.9704C84.7199 35.9704 83.2766 34.5385 83.2766 32.5858C83.2766 30.6331 84.7199 29.2012 86.4255 29.2012C88.1312 29.2012 89.5745 30.503 89.5745 32.5858C89.5745 34.5385 88.1312 35.9704 86.4255 35.9704ZM74.2234 27.1183C71.0745 27.1183 68.5816 29.4615 68.5816 32.716C68.5816 35.8402 71.0745 38.3136 74.2234 38.3136C77.3723 38.3136 79.8652 35.9704 79.8652 32.716C79.8652 29.3314 77.3723 27.1183 74.2234 27.1183ZM74.2234 35.9704C72.5177 35.9704 71.0745 34.5385 71.0745 32.5858C71.0745 30.6331 72.5177 29.2012 74.2234 29.2012C75.9291 29.2012 77.3723 30.503 77.3723 32.5858C77.3723 34.5385 75.9291 35.9704 74.2234 35.9704ZM59.6596 28.8106V31.1538H65.3014C65.1702 32.4556 64.6454 33.497 63.9894 34.1479C63.2021 34.929 61.8901 35.8402 59.6596 35.8402C56.117 35.8402 53.4929 33.1065 53.4929 29.5917C53.4929 26.0769 56.2482 23.3432 59.6596 23.3432C61.4965 23.3432 62.9397 24.1243 63.9894 25.0355L65.695 23.3432C64.2518 22.0414 62.4149 21 59.7908 21C55.0674 21 51 24.9053 51 29.5917C51 34.2781 55.0674 38.1834 59.7908 38.1834C62.4149 38.1834 64.2518 37.4024 65.8262 35.7101C67.4007 34.1479 67.9255 31.9349 67.9255 30.2426C67.9255 29.7219 67.9255 29.2012 67.7943 28.8106H59.6596ZM119.227 30.6331C118.702 29.3314 117.39 27.1183 114.504 27.1183C111.617 27.1183 109.255 29.3314 109.255 32.716C109.255 35.8402 111.617 38.3136 114.766 38.3136C117.259 38.3136 118.833 36.7515 119.358 35.8402L117.521 34.5385C116.865 35.4497 116.078 36.1006 114.766 36.1006C113.454 36.1006 112.667 35.5799 112.011 34.4083L119.489 31.284L119.227 30.6331ZM111.617 32.4556C111.617 30.3728 113.323 29.2012 114.504 29.2012C115.422 29.2012 116.34 29.7219 116.603 30.3728L111.617 32.4556ZM105.45 37.7929H107.943V21.5207H105.45V37.7929ZM101.514 28.2899C100.858 27.6391 99.8085 26.9882 98.4965 26.9882C95.7411 26.9882 93.117 29.4615 93.117 32.5858C93.117 35.7101 95.6099 38.0533 98.4965 38.0533C99.8085 38.0533 100.858 37.4024 101.383 36.7515H101.514V37.5325C101.514 39.6154 100.333 40.787 98.4965 40.787C97.0532 40.787 96.0035 39.7456 95.7411 38.8343L93.6418 39.7456C94.2979 41.1775 95.8723 43 98.6277 43C101.514 43 103.876 41.3077 103.876 37.2722V27.3787H101.514V28.2899ZM98.6277 35.9704C96.922 35.9704 95.4787 34.5385 95.4787 32.5858C95.4787 30.6331 96.922 29.2012 98.6277 29.2012C100.333 29.2012 101.645 30.6331 101.645 32.5858C101.645 34.5385 100.333 35.9704 98.6277 35.9704ZM130.642 21.5207H124.738V37.7929H127.23V31.6746H130.642C133.397 31.6746 136.021 29.7219 136.021 26.5976C136.021 23.4734 133.397 21.5207 130.642 21.5207ZM130.773 29.3314H127.23V23.7337H130.773C132.61 23.7337 133.66 25.2959 133.66 26.4675C133.528 27.8994 132.479 29.3314 130.773 29.3314ZM145.862 26.9882C144.025 26.9882 142.188 27.7692 141.532 29.4615L143.762 30.3728C144.287 29.4615 145.074 29.2012 145.993 29.2012C147.305 29.2012 148.486 29.9822 148.617 31.284V31.4142C148.223 31.1538 147.174 30.7633 146.124 30.7633C143.762 30.7633 141.401 32.0651 141.401 34.4083C141.401 36.6213 143.369 38.0533 145.468 38.0533C147.174 38.0533 147.961 37.2722 148.617 36.4911H148.748V37.7929H151.11V31.5444C150.848 28.6805 148.617 26.9882 145.862 26.9882ZM145.599 35.9704C144.812 35.9704 143.631 35.5799 143.631 34.5385C143.631 33.2367 145.074 32.8462 146.255 32.8462C147.305 32.8462 147.83 33.1065 148.486 33.3669C148.223 34.929 146.911 35.9704 145.599 35.9704ZM159.376 27.3787L156.621 34.4083H156.489L153.603 27.3787H150.979L155.309 37.2722L152.816 42.7396H155.309L162 27.3787H159.376ZM137.333 37.7929H139.826V21.5207H137.333V37.7929Z" fill="white"/>
<path d="M10.4618 8.53003C10.0675 8.92431 9.80469 9.58145 9.80469 10.37V39.4154C9.80469 40.204 10.0675 40.8611 10.4618 41.2554L10.5933 41.3868L26.8902 25.0899V24.9584V24.827L10.4618 8.53003Z" fill="url(#paint0_linear_110_4717)"/>
<path d="M32.2788 30.611L26.8903 25.2225V24.9596V24.8282L32.2788 19.4397L32.4102 19.5711L38.8501 23.2511C40.6901 24.3025 40.6901 26.0111 38.8501 27.0625L32.2788 30.611Z" fill="url(#paint1_linear_110_4717)"/>
<path d="M32.4102 30.4784L26.8903 24.9585L10.4619 41.3869C11.119 42.044 12.039 42.044 13.2218 41.5183L32.4102 30.4784Z" fill="url(#paint2_linear_110_4717)"/>
<path d="M32.4102 19.4394L13.2218 8.53091C12.039 7.87378 11.119 8.0052 10.4619 8.66234L26.8903 24.9593L32.4102 19.4394Z" fill="url(#paint3_linear_110_4717)"/>
<path opacity="0.2" d="M32.2788 30.3479L13.2218 41.1249C12.1704 41.7821 11.2504 41.6506 10.5933 41.1249L10.4619 41.2564L10.5933 41.3878C11.2504 41.9135 12.1704 42.0449 13.2218 41.3878L32.2788 30.3479Z" fill="black"/>
<path opacity="0.12" d="M10.4639 41.1246C10.0696 40.7304 9.93817 40.0732 9.93817 39.2847V39.4161C9.93817 40.2047 10.201 40.8618 10.5953 41.2561V41.1246H10.4639Z" fill="black"/>
<path opacity="0.12" d="M38.8522 26.667L32.2808 30.347L32.4122 30.4784L38.8522 26.7985C39.7722 26.2728 40.1665 25.6156 40.1665 24.9585C40.1665 25.6156 39.6407 26.1413 38.8522 26.667Z" fill="black"/>
<path opacity="0.25" d="M13.2239 8.66204L38.8522 23.2505C39.6407 23.7762 40.1664 24.3019 40.1664 24.959C40.1664 24.3019 39.7722 23.6447 38.8522 23.119L13.2239 8.53061C11.3839 7.47919 9.93817 8.39919 9.93817 10.502V10.6334C9.93817 8.53061 11.3839 7.61062 13.2239 8.66204Z" fill="white"/>
<path d="M52.1231 17.4672H51.2031V14.8387H51.9917C52.6488 14.313 53.0431 13.2616 53.0431 11.8159V7.87305H58.3002V14.8387H59.2202V17.4672H58.3002V15.7587H52.2545V17.4672H52.1231ZM53.9631 11.8159C53.9631 12.9987 53.7002 14.0501 53.1745 14.8387H57.1174V8.92446H53.8317V11.8159H53.9631Z" fill="white" stroke="white" stroke-width="0.2" stroke-miterlimit="10"/>
<path d="M66.9734 14.7078C66.1848 15.4964 65.2648 15.8907 64.082 15.8907C62.8992 15.8907 61.9792 15.4964 61.1906 14.7078C60.402 13.9193 60.0078 12.9993 60.0078 11.8164C60.0078 10.6336 60.402 9.7136 61.1906 8.92503C61.9792 8.13647 62.8992 7.74219 64.082 7.74219C65.2648 7.74219 66.1848 8.13647 66.9734 8.92503C67.762 9.7136 68.1562 10.6336 68.1562 11.8164C68.1562 12.9993 67.762 13.9193 66.9734 14.7078ZM61.9792 14.0507C62.5049 14.5764 63.2934 14.9707 64.082 14.9707C64.8706 14.9707 65.6591 14.7078 66.1848 14.0507C66.7105 13.525 67.1048 12.7364 67.1048 11.8164C67.1048 10.8964 66.842 10.1079 66.1848 9.58217C65.6591 9.05646 64.8706 8.66218 64.082 8.66218C63.2934 8.66218 62.5049 8.92503 61.9792 9.58217C61.4535 10.1079 61.0592 10.8964 61.0592 11.8164C61.0592 12.7364 61.322 13.525 61.9792 14.0507Z" fill="white" stroke="white" stroke-width="0.2" stroke-miterlimit="10"/>
<path d="M73.2819 15.8907C72.099 15.8907 71.1791 15.4964 70.3905 14.7078C69.6019 13.9193 69.2076 12.9993 69.2076 11.8164C69.2076 10.6336 69.6019 9.7136 70.3905 8.92503C71.1791 8.13647 72.099 7.74219 73.2819 7.74219C74.4647 7.74219 75.3847 8.13647 76.1733 9.05646L75.5162 9.7136C74.9904 9.05646 74.2019 8.66218 73.2819 8.66218C72.3619 8.66218 71.7048 8.92503 71.0476 9.58217C70.3905 10.1079 70.1276 10.8964 70.1276 11.8164C70.1276 12.7364 70.3905 13.525 71.0476 14.0507C71.5733 14.5764 72.3619 14.9707 73.2819 14.9707C74.2019 14.9707 74.9904 14.5764 75.6476 13.7878L76.3047 14.445C75.9104 14.8393 75.5162 15.2335 74.9904 15.4964C74.4647 15.7592 73.939 15.8907 73.2819 15.8907Z" fill="white" stroke="white" stroke-width="0.2" stroke-miterlimit="10"/>
<path d="M80.5124 15.7587H79.461V8.79304H77.2267V7.87305H82.6153V8.79304H80.381V15.7587H80.5124Z" fill="white" stroke="white" stroke-width="0.2" stroke-miterlimit="10"/>
<path d="M86.555 14.576C86.1607 15.496 85.5036 16.0217 84.715 16.0217C84.4522 16.0217 84.1893 16.0217 83.9265 15.8903L84.1893 14.9703C84.3208 15.1017 84.5836 15.1017 84.715 15.1017C84.9779 15.1017 85.1093 15.1017 85.2408 14.9703C85.3722 14.8389 85.5036 14.7074 85.635 14.4446L85.8979 13.7874L83.2693 8.00464H84.4522L86.4236 12.4732L88.2636 8.00464H89.5779L86.555 14.576Z" fill="white" stroke="white" stroke-width="0.2" stroke-miterlimit="10"/>
<path d="M90.7648 15.7587V7.87305H96.4161V15.7587H95.3647V8.79304H91.6848V15.7587H90.7648Z" fill="white" stroke="white" stroke-width="0.2" stroke-miterlimit="10"/>
<path d="M98.2551 15.7587V7.87305H99.3065V11.2902H103.249V7.87305H104.301V15.7587H103.249V12.2101H99.3065V15.7587H98.2551Z" fill="white" stroke="white" stroke-width="0.2" stroke-miterlimit="10"/>
<path d="M112.578 14.7078C111.789 15.4964 110.869 15.8907 109.686 15.8907C108.503 15.8907 107.583 15.4964 106.795 14.7078C106.006 13.9193 105.612 12.9993 105.612 11.8164C105.612 10.6336 106.006 9.7136 106.795 8.92503C107.583 8.13647 108.503 7.74219 109.686 7.74219C110.869 7.74219 111.789 8.13647 112.578 8.92503C113.366 9.7136 113.76 10.6336 113.76 11.8164C113.629 12.9993 113.235 13.9193 112.578 14.7078ZM107.452 14.0507C107.978 14.5764 108.766 14.9707 109.555 14.9707C110.343 14.9707 111.132 14.7078 111.658 14.0507C112.183 13.525 112.578 12.7364 112.578 11.8164C112.578 10.8964 112.315 10.1079 111.658 9.58217C111.132 9.05646 110.343 8.66218 109.555 8.66218C108.766 8.66218 107.978 8.92503 107.452 9.58217C106.926 10.1079 106.532 10.8964 106.532 11.8164C106.532 12.7364 106.926 13.525 107.452 14.0507Z" fill="white" stroke="white" stroke-width="0.2" stroke-miterlimit="10"/>
<path d="M117.836 15.7587V7.87305H120.727C121.384 7.87305 121.91 8.1359 122.304 8.53018C122.699 8.92446 122.961 9.45017 122.961 10.1073C122.961 10.5016 122.83 10.7644 122.699 11.1587C122.567 11.4216 122.304 11.6844 121.91 11.8159C122.304 11.9473 122.567 12.2101 122.83 12.473C123.093 12.7359 123.224 13.1301 123.224 13.6558C123.224 14.313 122.961 14.8387 122.567 15.233C122.041 15.6273 121.516 15.8901 120.859 15.8901H117.836V15.7587ZM118.887 11.2902H120.727C121.121 11.2902 121.384 11.1587 121.647 10.8959C121.91 10.633 122.041 10.3702 122.041 10.1073C122.041 9.84446 121.91 9.5816 121.647 9.31875C121.384 9.05589 121.121 8.92446 120.727 8.92446H118.887V11.2902ZM118.887 14.8387H120.99C121.384 14.8387 121.647 14.7073 121.91 14.4444C122.173 14.1816 122.304 13.9187 122.304 13.5244C122.304 13.2616 122.173 12.8673 121.91 12.6044C121.647 12.3416 121.384 12.2101 120.99 12.2101H119.019V14.8387H118.887Z" fill="white" stroke="white" stroke-width="0.2" stroke-miterlimit="10"/>
<rect x="0.5" y="0.5" width="173" height="49" rx="4.5" stroke="white"/>
<defs>
<linearGradient id="paint0_linear_110_4717" x1="25.4441" y1="10.1199" x2="3.38749" y2="32.1766" gradientUnits="userSpaceOnUse">
<stop stop-color="#00A0FF"/>
<stop offset="0.00657445" stop-color="#00A1FF"/>
<stop offset="0.2601" stop-color="#00BEFF"/>
<stop offset="0.5122" stop-color="#00D2FF"/>
<stop offset="0.7604" stop-color="#00DFFF"/>
<stop offset="1" stop-color="#00E3FF"/>
</linearGradient>
<linearGradient id="paint1_linear_110_4717" x1="41.261" y1="24.9615" x2="9.45972" y2="24.9615" gradientUnits="userSpaceOnUse">
<stop stop-color="#FFE000"/>
<stop offset="0.4087" stop-color="#FFBD00"/>
<stop offset="0.7754" stop-color="#FFA500"/>
<stop offset="1" stop-color="#FF9C00"/>
</linearGradient>
<linearGradient id="paint2_linear_110_4717" x1="29.4229" y1="27.9762" x2="-0.487747" y2="57.8868" gradientUnits="userSpaceOnUse">
<stop stop-color="#FF3A44"/>
<stop offset="1" stop-color="#C31162"/>
</linearGradient>
<linearGradient id="paint3_linear_110_4717" x1="6.38406" y1="-1.09456" x2="19.7405" y2="12.2617" gradientUnits="userSpaceOnUse">
<stop stop-color="#32A071"/>
<stop offset="0.0685" stop-color="#2DA771"/>
<stop offset="0.4762" stop-color="#15CF74"/>
<stop offset="0.8009" stop-color="#06E775"/>
<stop offset="1" stop-color="#00F076"/>
</linearGradient>
</defs>
</svg>
