<svg width="45" height="45" viewBox="0 0 45 45" fill="none" xmlns="http://www.w3.org/2000/svg">
<path fill-rule="evenodd" clip-rule="evenodd" d="M3 22.5C3 11.7304 11.7304 3 22.5 3C33.2696 3 42 11.7304 42 22.5C42 33.2696 33.2696 42 22.5 42C11.7304 42 3 33.2696 3 22.5Z" stroke="#0371E2" stroke-width="5"/>
<path fill-rule="evenodd" clip-rule="evenodd" d="M19.9215 12.0999H25.09C30.7627 12.0999 32.9082 14.2428 32.9149 19.9155L32.921 25.0841C32.9277 30.7569 30.7872 32.8998 25.1144 32.8998H19.9459C14.2732 32.8998 12.1277 30.7569 12.121 25.0841L12.1149 19.9155C12.1082 14.2428 14.2488 12.0999 19.9215 12.0999ZM29.2557 17.0162C29.2566 17.7124 28.6928 18.2769 27.9966 18.2769C27.3004 18.2769 26.7354 17.7124 26.7345 17.0162C26.7337 16.3201 27.2974 15.7556 27.9937 15.7556C28.6899 15.7556 29.2549 16.3201 29.2557 17.0162ZM22.5747 17.1423C19.5492 17.1423 17.1569 19.5375 17.1605 22.5629C17.1639 25.4622 19.5618 27.8574 22.4612 27.8574C25.3606 27.8574 27.753 25.4622 27.7495 22.5629C27.872 19.5375 25.4741 17.1423 22.5747 17.1423ZM22.5849 25.8405C20.694 25.8405 19.3056 24.3277 19.3035 22.5629C19.3013 20.672 20.8124 19.2852 22.5772 19.2852C24.4681 19.2852 25.8566 20.7981 25.8586 22.5629C25.8607 24.3277 24.3498 25.8405 22.5849 25.8405Z" fill="#0371E2"/>
</svg>
