<svg width="45" height="45" viewBox="0 0 45 45" fill="none" xmlns="http://www.w3.org/2000/svg">
<path fill-rule="evenodd" clip-rule="evenodd" d="M3 22.5C3 11.7304 11.7304 3 22.5 3C33.2696 3 42 11.7304 42 22.5C42 33.2696 33.2696 42 22.5 42C11.7304 42 3 33.2696 3 22.5Z" stroke="#0371E2" stroke-width="5"/>
<path d="M10.1637 21.8885C12.4578 20.6945 15.0187 19.6978 17.4115 18.6961C21.528 17.0554 25.6608 15.4431 29.8353 13.942C30.6475 13.6863 32.1069 13.4362 32.25 14.5736C32.1716 16.1835 31.8493 17.7841 31.6282 19.3847C31.067 22.9044 30.4184 26.4121 29.7859 29.9203C29.568 31.0889 28.0189 31.6938 27.0276 30.9459C24.6455 29.4255 22.2451 27.9198 19.8934 26.364C19.123 25.6244 19.8374 24.5621 20.5254 24.0339C22.4873 22.2068 24.5681 20.6545 26.4275 18.7329C26.9291 17.5884 25.4471 18.553 24.9583 18.8486C22.2723 20.5976 19.652 22.4535 16.8201 23.9907C15.3736 24.7431 13.6877 24.1001 12.2418 23.6802C10.9455 23.173 9.04576 22.662 10.1636 21.8887L10.1637 21.8885Z" fill="#0371E2"/>
</svg>
