<svg width="24" height="19" viewBox="0 0 24 19" fill="none" xmlns="http://www.w3.org/2000/svg">
<path d="M1.16389 8.88854C3.45804 7.69446 6.01892 6.69781 8.41168 5.69609C12.5282 4.05536 16.661 2.44306 20.8355 0.94203C21.6477 0.686285 23.1071 0.436211 23.2502 1.57357C23.1718 3.18355 22.8495 4.7841 22.6284 6.38465C22.0672 9.90441 21.4186 13.4121 20.7861 16.9203C20.5682 18.0889 19.0191 18.6938 18.0278 17.946C15.6457 16.4255 13.2453 14.9198 10.8936 13.364C10.1232 12.6244 10.8376 11.5621 11.5256 11.0339C13.4875 9.20681 15.5683 7.65448 17.4277 5.73295C17.9293 4.58842 16.4473 5.55299 15.9584 5.84856C13.2725 7.59763 10.6522 9.45348 7.82035 10.9907C6.37383 11.7431 4.68789 11.1001 3.24203 10.6802C1.94566 10.173 0.0459609 9.66203 1.16376 8.88869L1.16389 8.88854Z" fill="white"/>
</svg>
