<svg width="80" height="80" viewBox="0 0 80 80" fill="none" xmlns="http://www.w3.org/2000/svg">
<circle cx="40" cy="40" r="40" fill="#0370E2" fill-opacity="0.25"/>
<path d="M51.9896 31.5001C51.9995 31.7373 52.0044 31.8559 52.0717 31.9245C52.1389 31.9931 52.2593 32.0005 52.5001 32.0154C56.6854 32.2735 60 35.7497 60 40C60 44.4183 56.4183 48 52 48H50.5C50.2643 48 50.1464 48 50.0732 47.9268C50 47.8536 50 47.7357 50 47.5V40C50 38.1144 50 37.1716 49.4142 36.5858C48.8284 36 47.8856 36 46 36H34C32.1144 36 31.1716 36 30.5858 36.5858C30 37.1716 30 38.1144 30 40V47.5C30 47.7357 30 47.8536 29.9268 47.9268C29.8536 48 29.7357 48 29.5 48H28C23.5817 48 20 44.4183 20 40C20 35.7497 23.3146 32.2735 27.4999 32.0154C27.7407 32.0005 27.8611 31.9931 27.9283 31.9245C27.9956 31.8559 28.0005 31.7373 28.0104 31.5001C28.0361 30.8834 28.1095 30.2679 28.2306 29.6589C28.5897 27.8536 29.3592 26.1552 30.4798 24.6949C31.6003 23.2346 33.0417 22.0516 34.6925 21.2375C36.3434 20.4234 38.1593 20 40 20C41.8407 20 43.6566 20.4234 45.3075 21.2375C46.9583 22.0516 48.3997 23.2346 49.5202 24.6949C50.6408 26.1551 51.4103 27.8536 51.7694 29.6589C51.8905 30.2679 51.9639 30.8834 51.9896 31.5001Z" fill="#0370E2"/>
<path fill-rule="evenodd" clip-rule="evenodd" d="M32.5858 38.5858C32 39.1716 32 40.1144 32 42V54C32 55.8856 32 56.8284 32.5858 57.4142C33.1716 58 34.1144 58 36 58H44C45.8856 58 46.8284 58 47.4142 57.4142C48 56.8284 48 55.8856 48 54V42C48 40.1144 48 39.1716 47.4142 38.5858C46.8284 38 45.8856 38 44 38H36C34.1144 38 33.1716 38 32.5858 38.5858ZM39 47C38.4477 47 38 47.4477 38 48C38 48.5523 38.4477 49 39 49H41C41.5523 49 42 48.5523 42 48C42 47.4477 41.5523 47 41 47H39Z" fill="#0370E2"/>
</svg>
