<svg width="80" height="80" viewBox="0 0 80 80" fill="none" xmlns="http://www.w3.org/2000/svg">
<circle cx="40" cy="40" r="40" fill="#0370E2" fill-opacity="0.25"/>
<path fill-rule="evenodd" clip-rule="evenodd" d="M52.7878 27.48L42.3635 23.0125C40.8542 22.3656 39.1458 22.3656 37.6365 23.0125L27.2122 27.48C26.4768 27.7952 26 28.5183 26 29.3183V39.8241C26 43.6995 27.8716 47.3364 31.0251 49.5889L37.675 54.3389C39.0658 55.3323 40.9342 55.3323 42.325 54.3389L48.9749 49.5889C52.1284 47.3364 54 43.6995 54 39.8241V29.3183C54 28.5183 53.5232 27.7952 52.7878 27.48ZM46.7809 34.6247C47.1259 34.1934 47.056 33.5641 46.6247 33.2191C46.1934 32.8741 45.5641 32.944 45.2191 33.3753L37.9171 42.5029L34.7071 39.2929C34.3166 38.9024 33.6834 38.9024 33.2929 39.2929C32.9024 39.6834 32.9024 40.3166 33.2929 40.7071L36.8979 44.3121C37.53 44.9443 38.5714 44.8866 39.1298 44.1885L46.7809 34.6247Z" fill="#0370E2"/>
</svg>
