<svg width="80" height="80" viewBox="0 0 80 80" fill="none" xmlns="http://www.w3.org/2000/svg">
<circle cx="40" cy="40" r="40" fill="#0370E2" fill-opacity="0.25"/>
<path fill-rule="evenodd" clip-rule="evenodd" d="M40 60C51.0457 60 60 51.0457 60 40C60 28.9543 51.0457 20 40 20C28.9543 20 20 28.9543 20 40C20 51.0457 28.9543 60 40 60ZM33.1299 43.6H39.5C39.7357 43.6 39.8536 43.6 39.9268 43.6732C40 43.7464 40 43.8643 40 44.1V55.7299C40 56.6205 40 57.0659 40.1962 57.1091C40.3925 57.1523 40.5795 56.7482 40.9537 55.9399L48.6851 39.2402C49.2768 37.9621 49.5726 37.3231 49.2777 36.8615C48.9828 36.4 48.2786 36.4 46.8701 36.4H40.5C40.2643 36.4 40.1464 36.4 40.0732 36.3268C40 36.2536 40 36.1357 40 35.9V24.2701C40 23.3795 40 22.9341 39.8038 22.8909C39.6075 22.8477 39.4205 23.2518 39.0463 24.0601L31.3149 40.7597C30.7232 42.0379 30.4274 42.6769 30.7223 43.1385C31.0172 43.6 31.7214 43.6 33.1299 43.6Z" fill="#0370E2"/>
</svg>
