<svg width="174" height="50" viewBox="0 0 174 50" fill="none" xmlns="http://www.w3.org/2000/svg">
<rect x="0.5" y="0.5" width="173" height="49" rx="4.5" fill="black"/>
<path d="M34.9527 24.4008C34.9683 23.1886 35.2903 21.9999 35.8888 20.9456C36.4872 19.8912 37.3426 19.0053 38.3754 18.3703C37.7193 17.4333 36.8537 16.6622 35.8475 16.1181C34.8412 15.5741 33.7219 15.2723 32.5786 15.2365C30.1397 14.9805 27.7752 16.6959 26.5324 16.6959C25.2655 16.6959 23.3519 15.2619 21.2913 15.3043C19.9585 15.3474 18.6595 15.735 17.521 16.4293C16.3825 17.1236 15.4433 18.101 14.7948 19.2663C11.9859 24.1296 14.0811 31.277 16.7718 35.2081C18.1181 37.133 19.6914 39.2832 21.7502 39.207C23.7647 39.1234 24.5172 37.9224 26.9489 37.9224C29.3581 37.9224 30.064 39.207 32.1645 39.1585C34.3263 39.1234 35.6883 37.225 36.9873 35.2818C37.9545 33.9102 38.6989 32.3943 39.1926 30.7902C37.9367 30.259 36.865 29.3699 36.111 28.2337C35.357 27.0975 34.9542 25.7645 34.9527 24.4008Z" fill="white"/>
<path d="M30.987 12.6509C32.1657 11.2359 32.7464 9.41724 32.6057 7.58105C30.805 7.77019 29.1416 8.63083 27.947 9.99149C27.3629 10.6562 26.9156 11.4295 26.6306 12.2672C26.3455 13.1049 26.2284 13.9906 26.2859 14.8736C27.1866 14.8829 28.0776 14.6877 28.892 14.3026C29.7063 13.9176 30.4226 13.3529 30.987 12.6509Z" fill="white"/>
<path d="M60.4192 34.3332H53.5443L51.8934 39.2081H48.9814L55.4932 21.1721H58.5186L65.0303 39.2081H62.0687L60.4192 34.3332ZM54.2564 32.0837H59.7058L57.0194 24.172H56.9442L54.2564 32.0837Z" fill="white"/>
<path d="M79.092 32.6335C79.092 36.7199 76.9049 39.3453 73.6044 39.3453C72.7683 39.389 71.9368 39.1964 71.2051 38.7895C70.4734 38.3827 69.871 37.778 69.467 37.0447H69.4045V43.5578H66.7054V26.058H69.3181V28.2451H69.3677C69.7903 27.5153 70.4028 26.9137 71.1401 26.5044C71.8774 26.095 72.7119 25.8932 73.5547 25.9204C76.8921 25.9204 79.092 28.5586 79.092 32.6335ZM76.3177 32.6335C76.3177 29.9713 74.9419 28.221 72.8427 28.221C70.7804 28.221 69.3932 30.0081 69.3932 32.6335C69.3932 35.2831 70.7804 37.0574 72.8427 37.0574C74.9419 37.0574 76.3177 35.3199 76.3177 32.6335Z" fill="white"/>
<path d="M93.5651 32.6335C93.5651 36.7199 91.3779 39.3453 88.0774 39.3453C87.2413 39.389 86.4098 39.1964 85.6781 38.7895C84.9464 38.3826 84.344 37.7779 83.94 37.0446H83.8776V43.5578H81.1784V26.058H83.791V28.2451H83.8407C84.2633 27.5153 84.8758 26.9137 85.6131 26.5044C86.3504 26.095 87.1848 25.8932 88.0277 25.9204C91.3652 25.9204 93.5651 28.5586 93.5651 32.6335ZM90.7907 32.6335C90.7907 29.9713 89.4149 28.221 87.3157 28.221C85.2534 28.221 83.8662 30.0081 83.8662 32.6335C83.8662 35.2831 85.2534 37.0574 87.3157 37.0574C89.4149 37.0574 90.7907 35.3199 90.7907 32.6335H90.7907Z" fill="white"/>
<path d="M103.129 34.1828C103.329 35.9714 105.067 37.1457 107.441 37.1457C109.716 37.1457 111.353 35.9713 111.353 34.3586C111.353 32.9587 110.366 32.1205 108.028 31.546L105.691 30.9829C102.379 30.1829 100.841 28.6341 100.841 26.1207C100.841 23.0088 103.553 20.8713 107.404 20.8713C111.215 20.8713 113.828 23.0088 113.916 26.1207H111.191C111.028 24.3208 109.54 23.2343 107.366 23.2343C105.191 23.2343 103.704 24.3336 103.704 25.9335C103.704 27.2086 104.654 27.9589 106.979 28.5333L108.966 29.0212C112.666 29.8964 114.204 31.3829 114.204 34.021C114.204 37.3953 111.516 39.5087 107.241 39.5087C103.241 39.5087 100.541 37.4449 100.366 34.1827L103.129 34.1828Z" fill="white"/>
<path d="M120.03 22.9465V26.0584H122.531V28.1959H120.03V35.4452C120.03 36.5714 120.531 37.0962 121.63 37.0962C121.927 37.091 122.224 37.0702 122.518 37.0337V39.1585C122.024 39.2508 121.522 39.2926 121.019 39.2833C118.357 39.2833 117.318 38.2833 117.318 35.7331V28.1959H115.406V26.0584H117.318V22.9465H120.03Z" fill="white"/>
<path d="M123.979 32.634C123.979 28.4966 126.416 25.8967 130.216 25.8967C134.028 25.8967 136.454 28.4965 136.454 32.634C136.454 36.7827 134.041 39.3712 130.216 39.3712C126.392 39.3712 123.979 36.7827 123.979 32.634ZM133.703 32.634C133.703 29.7958 132.403 28.1207 130.216 28.1207C128.029 28.1207 126.729 29.8086 126.729 32.634C126.729 35.4835 128.029 37.1458 130.216 37.1458C132.403 37.1458 133.703 35.4835 133.703 32.634H133.703Z" fill="white"/>
<path d="M138.679 26.0579H141.253V28.296H141.316C141.49 27.597 141.9 26.9792 142.476 26.5466C143.052 26.1139 143.759 25.8928 144.479 25.9203C144.79 25.9192 145.1 25.953 145.404 26.021V28.5457C145.011 28.4257 144.601 28.3706 144.191 28.3826C143.799 28.3666 143.408 28.4358 143.045 28.5852C142.682 28.7347 142.356 28.9608 142.089 29.2483C141.821 29.5357 141.62 29.8775 141.497 30.2503C141.374 30.6231 141.334 31.018 141.378 31.4079V39.2075H138.679L138.679 26.0579Z" fill="white"/>
<path d="M157.848 35.3459C157.485 37.733 155.161 39.3712 152.186 39.3712C148.361 39.3712 145.987 36.8082 145.987 32.6964C145.987 28.5718 148.374 25.8967 152.073 25.8967C155.711 25.8967 157.999 28.3959 157.999 32.3829V33.3077H148.711V33.4708C148.668 33.9548 148.729 34.4423 148.889 34.901C149.049 35.3597 149.305 35.7792 149.639 36.1315C149.974 36.4837 150.38 36.7608 150.83 36.9442C151.279 37.1277 151.763 37.2133 152.249 37.1954C152.887 37.2552 153.527 37.1075 154.074 36.7742C154.621 36.441 155.046 35.94 155.285 35.3459L157.848 35.3459ZM148.724 31.4213H155.298C155.322 30.9861 155.256 30.5507 155.104 30.1423C154.952 29.7338 154.718 29.3612 154.415 29.0478C154.112 28.7345 153.747 28.4871 153.344 28.3212C152.941 28.1553 152.509 28.0745 152.073 28.0839C151.633 28.0812 151.198 28.1657 150.791 28.3323C150.384 28.499 150.014 28.7445 149.703 29.0548C149.392 29.3651 149.145 29.734 148.977 30.1401C148.809 30.5463 148.723 30.9817 148.724 31.4213V31.4213Z" fill="white"/>
<path d="M52.3347 11.2592H53.4935C53.693 11.2841 53.8955 11.2673 54.0882 11.21C54.2809 11.1527 54.4596 11.0562 54.6131 10.9264C54.7666 10.7966 54.8916 10.6364 54.9801 10.4559C55.0686 10.2754 55.1188 10.0786 55.1275 9.87774C55.1275 9.0785 54.5261 8.56221 53.5063 8.56221C53.3019 8.53365 53.0939 8.54633 52.8945 8.5995C52.6951 8.65267 52.5084 8.74526 52.3454 8.87178C52.1824 8.99831 52.0464 9.15622 51.9454 9.33618C51.8444 9.51615 51.7805 9.71452 51.7575 9.91959H50.4851C50.507 9.54734 50.6053 9.18358 50.7739 8.85096C50.9425 8.51834 51.1777 8.22399 51.465 7.98622C51.7522 7.74846 52.0854 7.57237 52.4436 7.46893C52.8019 7.36549 53.1776 7.3369 53.5474 7.38496C55.2537 7.38496 56.4551 8.34022 56.4551 9.71534C56.4591 10.176 56.305 10.6241 56.0185 10.9849C55.7319 11.3456 55.3303 11.5971 54.8807 11.6975V11.7996C55.4138 11.8233 55.9157 12.057 56.2769 12.4497C56.6382 12.8424 56.8292 13.3621 56.8083 13.8953C56.7688 14.2786 56.6533 14.6501 56.4684 14.9881C56.2835 15.3262 56.033 15.6239 55.7315 15.8639C55.43 16.1038 55.0837 16.2812 54.7128 16.3856C54.3419 16.49 53.9539 16.5193 53.5716 16.4717C53.1884 16.524 52.7986 16.4985 52.4255 16.3969C52.0524 16.2953 51.7036 16.1196 51.3998 15.8803C51.096 15.641 50.8435 15.343 50.6574 15.004C50.4713 14.6651 50.3553 14.2921 50.3164 13.9073H51.6085C51.6866 14.7364 52.4482 15.2712 53.5716 15.2712C54.6949 15.2712 55.4282 14.6705 55.4282 13.8237C55.4282 12.9649 54.7375 12.4358 53.5304 12.4358H52.3347V11.2592Z" fill="white"/>
<path d="M58.2764 14.412C58.2764 13.2347 59.1543 12.5561 60.7089 12.4596L62.4804 12.3575V11.793C62.4804 11.1022 62.0251 10.7122 61.1415 10.7122C60.421 10.7122 59.9231 10.9767 59.7784 11.4391H58.5288C58.6607 10.3157 59.7189 9.59521 61.2025 9.59521C62.8421 9.59521 63.7669 10.4115 63.7669 11.793V16.2615H62.523V15.3424H62.4208C62.2136 15.6721 61.9225 15.9409 61.5774 16.1213C61.2322 16.3017 60.8454 16.3873 60.4564 16.3693C60.1819 16.3979 59.9044 16.3686 59.6418 16.2833C59.3793 16.1981 59.1375 16.0587 58.9321 15.8743C58.7267 15.6899 58.5623 15.4645 58.4493 15.2126C58.3364 14.9608 58.2774 14.688 58.2764 14.412ZM62.4804 13.8531V13.3064L60.8833 13.4085C59.9826 13.4688 59.5741 13.7751 59.5741 14.3517C59.5741 14.9403 60.0847 15.2829 60.7869 15.2829C60.9926 15.3037 61.2004 15.2829 61.398 15.2218C61.5955 15.1607 61.7787 15.0604 61.9367 14.927C62.0947 14.7936 62.2243 14.6298 62.3177 14.4453C62.4111 14.2608 62.4664 14.0595 62.4804 13.8531Z" fill="white"/>
<path d="M67.1923 10.8079V16.2615H65.9016V9.72144H70.2078V10.8078L67.1923 10.8079Z" fill="white"/>
<path d="M78.0286 12.9899C78.0286 15.0678 76.9776 16.3706 75.3266 16.3706C74.9213 16.3983 74.5166 16.3096 74.16 16.115C73.8034 15.9203 73.5099 15.6279 73.3139 15.272H73.2118V18.4371H71.9211V9.72268H73.1636V10.8035H73.26C73.4595 10.4353 73.7569 10.1293 74.1193 9.9194C74.4817 9.70952 74.8951 9.60391 75.3138 9.61421C76.9776 9.61417 78.0286 10.9113 78.0286 12.9899ZM76.701 12.9899C76.701 11.6084 76.0471 10.7737 74.9536 10.7737C73.8672 10.7737 73.1877 11.6261 73.1877 12.9956C73.1877 14.3586 73.8671 15.2118 74.9479 15.2118C76.0471 15.2118 76.701 14.377 76.701 12.9899Z" fill="white"/>
<path d="M79.7477 18.604V17.4927C79.8874 17.5104 80.0281 17.5185 80.1689 17.5168C80.4439 17.5372 80.7167 17.4553 80.935 17.2868C81.1533 17.1184 81.3017 16.8752 81.3518 16.6041L81.4482 16.2856L79.081 9.72144H80.4866L82.1263 14.9162H82.2284L83.8624 9.72144H85.2311L82.7929 16.5317C82.2341 18.1231 81.6157 18.6338 80.2824 18.6338C80.1746 18.6338 79.8682 18.6217 79.7477 18.604Z" fill="white"/>
<path d="M86.2353 14.4058H87.5203C87.6466 14.9824 88.187 15.2831 88.943 15.2831C89.8025 15.2831 90.3301 14.9044 90.3301 14.3157C90.3301 13.6853 89.8564 13.3846 88.943 13.3846H87.9643V12.3818H88.9259C89.706 12.3818 90.1032 12.0818 90.1032 11.5351C90.1032 11.0549 89.7188 10.6883 88.9259 10.6883C88.204 10.6883 87.6764 10.9947 87.5926 11.511H86.3488C86.4418 10.9177 86.7639 10.3846 87.2458 10.0264C87.7278 9.66822 88.3311 9.51346 88.9259 9.59545C90.4805 9.59545 91.3698 10.2983 91.3698 11.4032C91.3771 11.7108 91.2785 12.0117 91.0905 12.2554C90.9026 12.4991 90.6366 12.6709 90.3372 12.7421V12.8442C90.6937 12.8902 91.0209 13.0655 91.2567 13.3367C91.4926 13.608 91.6206 13.9564 91.6166 14.3158C91.6166 15.559 90.5585 16.3816 88.943 16.3816C87.5147 16.3816 86.3544 15.727 86.2353 14.4058Z" fill="white"/>
<path d="M93.4803 16.2615V9.72144H94.7597V14.2198H94.8618L97.8758 9.72145H99.1552V16.2616H97.8758V11.7391H97.7794L94.7597 16.2616L93.4803 16.2615Z" fill="white"/>
<path d="M106.199 10.8093H104.139V16.2629H102.847V10.8093H100.788V9.7229H106.199V10.8093Z" fill="white"/>
<path d="M113.151 14.4958C112.975 15.0935 112.595 15.6104 112.077 15.9562C111.559 16.3021 110.935 16.4549 110.316 16.3879C109.885 16.3993 109.457 16.3167 109.061 16.146C108.665 15.9753 108.311 15.7206 108.024 15.3994C107.736 15.0782 107.522 14.6983 107.396 14.2861C107.271 13.8738 107.236 13.4392 107.295 13.0122C107.237 12.5839 107.273 12.1483 107.398 11.7348C107.524 11.3213 107.737 10.9397 108.023 10.6157C108.309 10.2917 108.661 10.0329 109.056 9.85688C109.45 9.68084 109.878 9.59164 110.31 9.59532C112.13 9.59532 113.229 10.8386 113.229 12.8923V13.3427H108.611V13.415C108.591 13.6551 108.621 13.8968 108.699 14.1245C108.778 14.3523 108.903 14.5611 109.067 14.7376C109.231 14.914 109.43 15.0542 109.652 15.1491C109.873 15.244 110.112 15.2915 110.353 15.2886C110.661 15.3255 110.974 15.2698 111.251 15.1287C111.527 14.9875 111.756 14.7672 111.907 14.4958L113.151 14.4958ZM108.611 12.3881H111.913C111.929 12.1687 111.899 11.9483 111.826 11.7411C111.752 11.5339 111.635 11.3445 111.484 11.1849C111.332 11.0254 111.149 10.8993 110.946 10.8147C110.743 10.7301 110.524 10.689 110.304 10.6939C110.081 10.6908 109.86 10.7326 109.653 10.8167C109.446 10.9007 109.258 11.0254 109.1 11.1834C108.942 11.3413 108.817 11.5293 108.734 11.7362C108.65 11.9432 108.608 12.1648 108.611 12.3881H108.611Z" fill="white"/>
<path d="M118.625 9.72144H121.574C122.853 9.72144 123.604 10.3696 123.604 11.3844C123.606 11.7065 123.497 12.0194 123.296 12.2709C123.095 12.5223 122.813 12.6971 122.499 12.7659V12.8681C122.881 12.8922 123.239 13.0621 123.499 13.3427C123.759 13.6233 123.902 13.9931 123.897 14.3758C123.897 15.5169 123.039 16.2615 121.604 16.2615H118.625V9.72144ZM119.905 10.7122V12.4057H121.184C121.964 12.4057 122.337 12.1057 122.337 11.5525C122.337 11.0426 122.012 10.7122 121.327 10.7122L119.905 10.7122ZM119.905 13.3546V15.2708H121.435C122.198 15.2708 122.607 14.934 122.607 14.3156C122.607 13.661 122.144 13.3546 121.273 13.3546L119.905 13.3546Z" fill="white"/>
<rect x="0.5" y="0.5" width="173" height="49" rx="4.5" stroke="white"/>
</svg>
