<svg width="20" height="20" viewBox="0 0 20 20" fill="none" xmlns="http://www.w3.org/2000/svg">
<path d="M4.28605 0.000572172C4.28605 2.36737 2.36737 4.28604 0.000575441 4.28604V2.85755C1.57844 2.85755 2.85756 1.57844 2.85756 0.000573262L4.28605 0.000572172Z" fill="#0371E2"/>
<path d="M0.000572172 7.14302C3.94524 7.14302 7.14302 3.94524 7.14302 0.000573262H5.71453C5.71453 3.15631 3.1563 5.71453 0.000572172 5.71453V7.14302Z" fill="#0371E2"/>
<path d="M0.000571082 10C5.5231 10 10 5.5231 10 0.000573262H8.57151C8.57151 4.73417 4.73417 8.57151 0.000572172 8.57151L0.000571082 10Z" fill="#0371E2"/>
<path d="M14.2855 10C14.2855 12.3668 12.3668 14.2855 10 14.2855V12.857C11.5779 12.857 12.857 11.5779 12.857 10H14.2855Z" fill="#0371E2"/>
<path d="M19.9994 4.28604C17.6326 4.28604 15.714 2.36738 15.714 0.000576531H17.1425C17.1425 1.57844 18.4216 2.85755 19.9994 2.85755V4.28604Z" fill="#0371E2"/>
<path d="M12.857 0.000572172C12.857 3.94524 16.0548 7.14302 19.9994 7.14302V5.71453C16.8437 5.71453 14.2855 3.1563 14.2855 0.000572172H12.857Z" fill="#0371E2"/>
<path d="M10 0.000573262C10 5.5231 14.4769 10 19.9994 10V8.57151C15.2658 8.57151 11.4285 4.73417 11.4285 0.000572172L10 0.000573262Z" fill="#0371E2"/>
<path d="M10 14.2855C7.63321 14.2855 5.71453 12.3668 5.71453 10H7.14302C7.14302 11.5779 8.42214 12.857 10 12.857V14.2855Z" fill="#0371E2"/>
<path d="M15.714 19.9994C15.714 17.6326 17.6326 15.714 19.9994 15.714V17.1425C18.4216 17.1425 17.1425 18.4216 17.1425 19.9994H15.714Z" fill="#0371E2"/>
<path d="M19.9994 12.857C16.0548 12.857 12.857 16.0548 12.857 19.9994H14.2855C14.2855 16.8437 16.8437 14.2855 19.9994 14.2855V12.857Z" fill="#0371E2"/>
<path d="M19.9994 10C14.4769 10 10 14.4769 10 19.9994L11.4285 19.9994C11.4285 15.2658 15.2658 11.4285 19.9994 11.4285V10Z" fill="#0371E2"/>
<path d="M5.71453 10C5.71453 7.63321 7.6332 5.71453 10 5.71453V7.14302C8.42213 7.14302 7.14302 8.42214 7.14302 10H5.71453Z" fill="#0371E2"/>
<path d="M0.000567813 15.714C2.36737 15.714 4.28605 17.6326 4.28605 19.9994H2.85756C2.85756 18.4216 1.57843 17.1425 0.000567813 17.1425V15.714Z" fill="#0371E2"/>
<path d="M7.14302 19.9994C7.14302 16.0548 3.94524 12.857 0.000572172 12.857V14.2855C3.1563 14.2855 5.71453 16.8437 5.71453 19.9994H7.14302Z" fill="#0371E2"/>
<path d="M10 19.9994C10 14.4769 5.5231 10 0.000571082 10L0.000572172 11.4285C4.73417 11.4285 8.57151 15.2658 8.57151 19.9994H10Z" fill="#0371E2"/>
<path d="M10 5.71453C12.3668 5.71453 14.2855 7.6332 14.2855 10H12.857C12.857 8.42213 11.5779 7.14302 10 7.14302V5.71453Z" fill="#0371E2"/>
</svg>
