<svg width="162" height="47" viewBox="0 0 162 47" fill="none" xmlns="http://www.w3.org/2000/svg">
<rect x="0.5" y="0.5" width="161" height="46" rx="4.5" fill="black"/>
<path d="M32.5418 22.9368C32.5563 21.7973 32.8561 20.68 33.4133 19.6888C33.9705 18.6977 34.7669 17.865 35.7285 17.2681C35.1176 16.3873 34.3117 15.6625 33.3749 15.1511C32.438 14.6397 31.3959 14.356 30.3314 14.3223C28.0607 14.0817 25.8593 15.6942 24.7022 15.6942C23.5226 15.6942 21.7411 14.3462 19.8226 14.3861C18.5817 14.4266 17.3723 14.7909 16.3123 15.4436C15.2523 16.0962 14.3779 17.015 13.7741 18.1103C11.1589 22.6818 13.1096 29.4004 15.6148 33.0956C16.8682 34.9051 18.333 36.9263 20.2498 36.8546C22.1254 36.7761 22.8259 35.647 25.09 35.647C27.3331 35.647 27.9903 36.8546 29.9459 36.809C31.9586 36.776 33.2266 34.9915 34.4361 33.1649C35.3366 31.8756 36.0296 30.4507 36.4893 28.9428C35.32 28.4435 34.3222 27.6077 33.6202 26.5397C32.9182 25.4717 32.5432 24.2186 32.5418 22.9368Z" fill="white"/>
<path d="M28.8491 11.8918C29.9465 10.5618 30.4871 8.85223 30.3562 7.12622C28.6797 7.30401 27.131 8.11301 26.0188 9.39203C25.475 10.0169 25.0585 10.7438 24.7931 11.5312C24.5278 12.3187 24.4187 13.1512 24.4722 13.9812C25.3108 13.9899 26.1404 13.8064 26.8986 13.4445C27.6567 13.0826 28.3236 12.5517 28.8491 11.8918Z" fill="white"/>
<path d="M56.2515 32.2733H49.8508L48.3136 36.8557H45.6025L51.6652 19.9019H54.4819L60.5446 36.8557H57.7872L56.2515 32.2733ZM50.5137 30.1587H55.5873L53.0862 22.7217H53.0162L50.5137 30.1587Z" fill="white"/>
<path d="M73.6369 30.6754C73.6369 34.5166 71.6006 36.9845 68.5277 36.9845C67.7493 37.0256 66.9751 36.8445 66.2939 36.4621C65.6126 36.0796 65.0518 35.5112 64.6757 34.8219H64.6175V40.9442H62.1045V24.4944H64.537V26.5503H64.5832C64.9766 25.8643 65.5469 25.2988 66.2334 24.914C66.9198 24.5292 67.6967 24.3395 68.4815 24.3651C71.5887 24.3651 73.6369 26.845 73.6369 30.6754ZM71.0539 30.6754C71.0539 28.1729 69.773 26.5276 67.8185 26.5276C65.8985 26.5276 64.607 28.2076 64.607 30.6754C64.607 33.166 65.8985 34.8339 67.8185 34.8339C69.773 34.8339 71.0539 33.2006 71.0539 30.6754Z" fill="white"/>
<path d="M87.1115 30.6754C87.1115 34.5166 85.0752 36.9844 82.0023 36.9844C81.2239 37.0256 80.4497 36.8445 79.7685 36.4621C79.0872 36.0796 78.5264 35.5112 78.1503 34.8219H78.0921V40.9442H75.5791V24.4944H78.0115V26.5503H78.0578C78.4512 25.8643 79.0215 25.2988 79.7079 24.914C80.3944 24.5292 81.1713 24.3395 81.956 24.3651C85.0633 24.3651 87.1115 26.8449 87.1115 30.6754ZM84.5285 30.6754C84.5285 28.1729 83.2476 26.5276 81.2932 26.5276C79.3731 26.5276 78.0816 28.2075 78.0816 30.6754C78.0816 33.166 79.3731 34.8339 81.2932 34.8339C83.2476 34.8339 84.5285 33.2006 84.5285 30.6754H84.5285Z" fill="white"/>
<path d="M96.0158 32.1319C96.202 33.8132 97.8197 34.9171 100.03 34.9171C102.148 34.9171 103.672 33.8131 103.672 32.2972C103.672 30.9812 102.753 30.1933 100.577 29.6533L98.4008 29.124C95.3173 28.372 93.8858 26.9161 93.8858 24.5536C93.8858 21.6284 96.4107 19.6191 99.996 19.6191C103.544 19.6191 105.977 21.6284 106.059 24.5536H103.522C103.37 22.8616 101.985 21.8404 99.9603 21.8404C97.9359 21.8404 96.5506 22.8737 96.5506 24.3776C96.5506 25.5762 97.4354 26.2815 99.5998 26.8214L101.45 27.2801C104.895 28.1027 106.327 29.5 106.327 31.9798C106.327 35.1517 103.824 37.1382 99.8441 37.1382C96.1201 37.1382 93.6058 35.1983 93.4434 32.1318L96.0158 32.1319Z" fill="white"/>
<path d="M111.751 21.5698V24.495H114.079V26.5042H111.751V33.3186C111.751 34.3772 112.217 34.8705 113.241 34.8705C113.517 34.8656 113.793 34.846 114.068 34.8118V36.809C113.607 36.8958 113.14 36.9351 112.672 36.9264C110.193 36.9264 109.226 35.9864 109.226 33.5892V26.5042H107.446V24.495H109.226V21.5698H111.751Z" fill="white"/>
<path d="M115.428 30.676C115.428 26.7869 117.696 24.343 121.234 24.343C124.784 24.343 127.042 26.7868 127.042 30.676C127.042 34.5758 124.796 37.009 121.234 37.009C117.674 37.009 115.428 34.5758 115.428 30.676ZM124.481 30.676C124.481 28.0082 123.27 26.4336 121.234 26.4336C119.198 26.4336 117.988 28.0202 117.988 30.676C117.988 33.3546 119.198 34.9172 121.234 34.9172C123.27 34.9172 124.481 33.3546 124.481 30.676H124.481Z" fill="white"/>
<path d="M129.114 24.4943H131.511V26.5982H131.569C131.731 25.9411 132.113 25.3604 132.649 24.9537C133.185 24.547 133.844 24.3391 134.514 24.3649C134.804 24.3639 135.092 24.3957 135.375 24.4596V26.8328C135.009 26.72 134.628 26.6682 134.246 26.6795C133.881 26.6645 133.517 26.7295 133.179 26.87C132.841 27.0105 132.537 27.2231 132.289 27.4933C132.04 27.7634 131.852 28.0848 131.738 28.4352C131.624 28.7856 131.586 29.1568 131.627 29.5234V36.855H129.114L129.114 24.4943Z" fill="white"/>
<path d="M146.962 33.2252C146.624 35.4691 144.459 37.009 141.69 37.009C138.129 37.009 135.918 34.5998 135.918 30.7347C135.918 26.8576 138.14 24.343 141.584 24.343C144.972 24.343 147.102 26.6922 147.102 30.44V31.3093H138.455V31.4627C138.415 31.9176 138.471 32.3758 138.62 32.807C138.769 33.2382 139.007 33.6325 139.319 33.9637C139.63 34.2948 140.008 34.5552 140.427 34.7277C140.846 34.9001 141.296 34.9806 141.748 34.9638C142.342 35.02 142.938 34.8811 143.447 34.5679C143.957 34.2546 144.352 33.7837 144.576 33.2252L146.962 33.2252ZM138.467 29.5361H144.587C144.61 29.1271 144.549 28.7177 144.407 28.3338C144.265 27.9499 144.047 27.5996 143.765 27.3051C143.483 27.0105 143.144 26.7779 142.768 26.622C142.393 26.4661 141.99 26.3901 141.584 26.3989C141.175 26.3964 140.77 26.4758 140.391 26.6325C140.012 26.7891 139.668 27.02 139.378 27.3116C139.088 27.6033 138.858 27.95 138.702 28.3318C138.546 28.7136 138.466 29.1229 138.467 29.5361V29.5361Z" fill="white"/>
<path d="M48.7258 10.5838H49.8047C49.9904 10.6071 50.1789 10.5914 50.3583 10.5375C50.5377 10.4837 50.7041 10.3929 50.8471 10.2709C50.99 10.1489 51.1063 9.99831 51.1887 9.82866C51.2712 9.659 51.3179 9.47395 51.326 9.28517C51.326 8.53388 50.7661 8.04857 49.8166 8.04857C49.6263 8.02172 49.4326 8.03364 49.247 8.08362C49.0614 8.1336 48.8875 8.22063 48.7357 8.33957C48.584 8.4585 48.4573 8.60693 48.3633 8.7761C48.2693 8.94527 48.2098 9.13174 48.1883 9.3245H47.0038C47.0242 8.97458 47.1157 8.63265 47.2726 8.31999C47.4296 8.00733 47.6486 7.73064 47.916 7.50714C48.1835 7.28364 48.4937 7.11812 48.8272 7.02088C49.1608 6.92365 49.5106 6.89678 49.8549 6.94195C51.4435 6.94195 52.562 7.8399 52.562 9.1325C52.5658 9.56554 52.4223 9.98676 52.1555 10.3259C51.8887 10.665 51.5148 10.9014 51.0962 10.9957V11.0917C51.5925 11.114 52.0599 11.3337 52.3961 11.7028C52.7324 12.0719 52.9103 12.5605 52.8908 13.0616C52.8541 13.4219 52.7465 13.7712 52.5744 14.0889C52.4022 14.4067 52.169 14.6866 51.8883 14.9121C51.6077 15.1377 51.2852 15.3044 50.9399 15.4025C50.5946 15.5007 50.2333 15.5282 49.8773 15.4835C49.5206 15.5326 49.1577 15.5087 48.8103 15.4132C48.463 15.3177 48.1382 15.1525 47.8554 14.9276C47.5725 14.7026 47.3375 14.4225 47.1642 14.1039C46.9909 13.7852 46.8829 13.4346 46.8467 13.073H48.0497C48.1223 13.8523 48.8315 14.355 49.8773 14.355C50.9232 14.355 51.6059 13.7903 51.6059 12.9944C51.6059 12.1871 50.9628 11.6898 49.839 11.6898H48.7258V10.5838Z" fill="white"/>
<path d="M54.2578 13.5473C54.2578 12.4407 55.0752 11.8027 56.5226 11.7121L58.1719 11.6161V11.0854C58.1719 10.4361 57.748 10.0695 56.9253 10.0695C56.2545 10.0695 55.791 10.3181 55.6563 10.7528H54.4929C54.6157 9.69683 55.6008 9.01953 56.9821 9.01953C58.5087 9.01953 59.3697 9.78681 59.3697 11.0854V15.2859H58.2115V14.4219H58.1165C57.9235 14.7318 57.6525 14.9845 57.3312 15.1541C57.0098 15.3236 56.6497 15.4041 56.2875 15.3872C56.0319 15.414 55.7735 15.3865 55.5291 15.3063C55.2847 15.2262 55.0596 15.0952 54.8683 14.9219C54.6771 14.7485 54.524 14.5367 54.4188 14.2999C54.3137 14.0631 54.2588 13.8068 54.2578 13.5473ZM58.1719 13.022V12.508L56.6849 12.604C55.8464 12.6607 55.4661 12.9487 55.4661 13.4906C55.4661 14.0439 55.9414 14.3659 56.5952 14.3659C56.7867 14.3855 56.9802 14.366 57.1641 14.3085C57.348 14.2511 57.5186 14.1568 57.6657 14.0314C57.8129 13.906 57.9335 13.7521 58.0204 13.5786C58.1074 13.4052 58.1589 13.2159 58.1719 13.022Z" fill="white"/>
<path d="M62.5591 10.1595V15.2859H61.3574V9.13818H65.3667V10.1594L62.5591 10.1595Z" fill="white"/>
<path d="M72.6472 12.2106C72.6472 14.1639 71.6687 15.3885 70.1316 15.3885C69.7543 15.4145 69.3774 15.3311 69.0454 15.1482C68.7135 14.9653 68.4402 14.6904 68.2577 14.3559H68.1626V17.3311H66.9609V9.13947H68.1177V10.1555H68.2075C68.3933 9.80929 68.6701 9.52168 69.0076 9.32439C69.345 9.1271 69.7299 9.02782 70.1197 9.03751C71.6687 9.03747 72.6472 10.2567 72.6472 12.2106ZM71.4112 12.2106C71.4112 10.912 70.8024 10.1274 69.7843 10.1274C68.7728 10.1274 68.1402 10.9287 68.1402 12.216C68.1402 13.4973 68.7727 14.2992 69.779 14.2992C70.8024 14.2992 71.4112 13.5146 71.4112 12.2106Z" fill="white"/>
<path d="M74.2486 17.4878V16.4432C74.3787 16.4598 74.5097 16.4674 74.6408 16.4658C74.8968 16.485 75.1508 16.408 75.3541 16.2496C75.5573 16.0913 75.6955 15.8628 75.7421 15.6079L75.8319 15.3085L73.6279 9.13818H74.9366L76.4632 14.0213H76.5583L78.0796 9.13818H79.3539L77.0839 15.5399C76.5636 17.0358 75.9878 17.5158 74.7465 17.5158C74.6461 17.5158 74.3609 17.5044 74.2486 17.4878Z" fill="white"/>
<path d="M80.2881 13.5414H81.4845C81.602 14.0834 82.1052 14.366 82.809 14.366C83.6093 14.366 84.1005 14.0101 84.1005 13.4568C84.1005 12.8641 83.6595 12.5815 82.809 12.5815H81.8978V11.6389H82.7932C83.5195 11.6389 83.8892 11.3569 83.8892 10.8429C83.8892 10.3916 83.5314 10.047 82.7932 10.047C82.121 10.047 81.6298 10.335 81.5518 10.8203H80.3937C80.4803 10.2626 80.7802 9.76154 81.2289 9.42482C81.6776 9.0881 82.2393 8.94263 82.7932 9.01969C84.2405 9.01969 85.0685 9.68033 85.0685 10.7189C85.0752 11.0082 84.9834 11.291 84.8085 11.5201C84.6335 11.7492 84.3859 11.9107 84.1071 11.9776V12.0735C84.439 12.1168 84.7437 12.2815 84.9632 12.5365C85.1828 12.7915 85.302 13.119 85.2983 13.4568C85.2983 14.6255 84.3131 15.3987 82.809 15.3987C81.4792 15.3987 80.399 14.7834 80.2881 13.5414Z" fill="white"/>
<path d="M87.0342 15.2859V9.13818H88.2253V13.3667H88.3204L91.1266 9.1382H92.3177V15.2859H91.1266V11.0348H91.0368L88.2253 15.2859L87.0342 15.2859Z" fill="white"/>
<path d="M98.8749 10.1609H96.9574V15.2873H95.7544V10.1609H93.8369V9.13965H98.8749V10.1609Z" fill="white"/>
<path d="M105.348 13.6261C105.184 14.1879 104.83 14.6738 104.347 14.9989C103.865 15.324 103.285 15.4676 102.708 15.4047C102.307 15.4153 101.908 15.3378 101.54 15.1773C101.171 15.0169 100.842 14.7774 100.574 14.4754C100.306 14.1735 100.107 13.8164 99.9898 13.4289C99.8725 13.0414 99.8402 12.6328 99.8951 12.2315C99.8417 11.8289 99.8746 11.4194 99.9915 11.0307C100.108 10.6421 100.307 10.2833 100.573 9.97878C100.839 9.67423 101.167 9.43098 101.535 9.2655C101.902 9.10002 102.3 9.01617 102.703 9.01963C104.397 9.01963 105.42 10.1883 105.42 12.1188V12.5422H101.121V12.6101C101.102 12.8358 101.129 13.063 101.203 13.2771C101.276 13.4912 101.392 13.6875 101.545 13.8533C101.698 14.0192 101.883 14.151 102.089 14.2402C102.296 14.3294 102.518 14.3741 102.742 14.3713C103.029 14.406 103.32 14.3537 103.578 14.221C103.836 14.0883 104.049 13.8812 104.19 13.626L105.348 13.6261ZM101.121 11.6448H104.195C104.21 11.4386 104.182 11.2315 104.113 11.0367C104.045 10.8419 103.936 10.6638 103.795 10.5139C103.654 10.3639 103.484 10.2453 103.295 10.1659C103.106 10.0864 102.902 10.0477 102.697 10.0523C102.489 10.0494 102.283 10.0887 102.09 10.1677C101.898 10.2467 101.723 10.3639 101.576 10.5124C101.429 10.6609 101.313 10.8376 101.235 11.0321C101.156 11.2266 101.118 11.435 101.121 11.6448H101.121Z" fill="white"/>
<path d="M110.444 9.13818H113.19C114.381 9.13818 115.079 9.74749 115.079 10.7014C115.081 11.0041 114.98 11.2983 114.793 11.5346C114.606 11.771 114.344 11.9353 114.051 12V12.096C114.406 12.1187 114.74 12.2784 114.982 12.5422C115.224 12.8059 115.357 13.1536 115.353 13.5133C115.353 14.5859 114.554 15.2858 113.217 15.2858H110.444V9.13818ZM111.635 10.0695V11.6614H112.827C113.553 11.6614 113.9 11.3794 113.9 10.8594C113.9 10.3801 113.598 10.0695 112.96 10.0695L111.635 10.0695ZM111.635 12.5534V14.3546H113.06C113.771 14.3546 114.151 14.038 114.151 13.4567C114.151 12.8414 113.721 12.5534 112.91 12.5534L111.635 12.5534Z" fill="white"/>
<rect x="0.5" y="0.5" width="161" height="46" rx="4.5" stroke="white"/>
</svg>
