<svg width="162" height="47" viewBox="0 0 162 47" fill="none" xmlns="http://www.w3.org/2000/svg">
<rect x="0.5" y="0.5" width="161" height="46" rx="4.5" fill="black"/>
<path d="M80.4648 25.4912C77.533 25.4912 75.2121 27.6938 75.2121 30.753C75.2121 33.6898 77.533 36.0148 80.4648 36.0148C83.3966 36.0148 85.7176 33.8122 85.7176 30.753C85.7176 27.5715 83.3966 25.4912 80.4648 25.4912ZM80.4648 33.8122C78.8768 33.8122 77.533 32.4661 77.533 30.6306C77.533 28.7951 78.8768 27.4491 80.4648 27.4491C82.0529 27.4491 83.3966 28.6728 83.3966 30.6306C83.3966 32.4661 82.0529 33.8122 80.4648 33.8122ZM69.1042 25.4912C66.1725 25.4912 63.8515 27.6938 63.8515 30.753C63.8515 33.6898 66.1725 36.0148 69.1042 36.0148C72.036 36.0148 74.357 33.8122 74.357 30.753C74.357 27.5715 72.036 25.4912 69.1042 25.4912ZM69.1042 33.8122C67.5162 33.8122 66.1724 32.4661 66.1724 30.6306C66.1724 28.7951 67.5162 27.4491 69.1042 27.4491C70.6923 27.4491 72.036 28.6728 72.036 30.6306C72.036 32.4661 70.6923 33.8122 69.1042 33.8122ZM55.5448 27.082V29.2846H60.7975C60.6754 30.5083 60.1868 31.4872 59.576 32.099C58.843 32.8332 57.6215 33.6898 55.5448 33.6898C52.2465 33.6898 49.8034 31.1201 49.8034 27.8162C49.8034 24.5123 52.3687 21.9426 55.5448 21.9426C57.255 21.9426 58.5987 22.6768 59.576 23.5334L61.164 21.9426C59.8203 20.7189 58.1101 19.74 55.6669 19.74C51.2693 19.74 47.4824 23.411 47.4824 27.8162C47.4824 32.2214 51.2693 35.8924 55.6669 35.8924C58.1101 35.8924 59.8203 35.1582 61.2862 33.5674C62.7521 32.099 63.2407 30.0188 63.2407 28.428C63.2407 27.9386 63.2407 27.4491 63.1185 27.082H55.5448ZM111.004 28.7951C110.515 27.5715 109.294 25.4912 106.606 25.4912C103.919 25.4912 101.72 27.5715 101.72 30.753C101.72 33.6898 103.919 36.0148 106.851 36.0148C109.172 36.0148 110.638 34.5464 111.126 33.6898L109.416 32.4661C108.805 33.3227 108.072 33.9345 106.851 33.9345C105.629 33.9345 104.896 33.4451 104.285 32.3438L111.248 29.407L111.004 28.7951ZM103.919 30.5083C103.919 28.5504 105.507 27.4491 106.606 27.4491C107.462 27.4491 108.317 27.9386 108.561 28.5504L103.919 30.5083ZM98.1776 35.5253H100.499V20.2295H98.1776V35.5253ZM94.5129 26.5925C93.9021 25.9807 92.9248 25.3689 91.7033 25.3689C89.138 25.3689 86.6948 27.6938 86.6948 30.6306C86.6948 33.5674 89.0158 35.7701 91.7033 35.7701C92.9248 35.7701 93.9021 35.1582 94.3907 34.5464H94.5129V35.2806C94.5129 37.2385 93.4135 38.3398 91.7033 38.3398C90.3595 38.3398 89.3823 37.3608 89.138 36.5043L87.1835 37.3608C87.7942 38.7069 89.2601 40.42 91.8254 40.42C94.5129 40.42 96.7117 38.8292 96.7117 35.0358V25.736H94.5129V26.5925ZM91.8254 33.8122C90.2374 33.8122 88.8937 32.4661 88.8937 30.6306C88.8937 28.7951 90.2374 27.4491 91.8254 27.4491C93.4135 27.4491 94.635 28.7951 94.635 30.6306C94.635 32.4661 93.4135 33.8122 91.8254 33.8122ZM121.632 20.2295H116.135V35.5253H118.456V29.7741H121.632C124.197 29.7741 126.64 27.9386 126.64 25.0018C126.64 22.065 124.197 20.2295 121.632 20.2295ZM121.754 27.5715H118.456V22.3097H121.754C123.464 22.3097 124.441 23.7781 124.441 24.8794C124.319 26.2254 123.342 27.5715 121.754 27.5715ZM135.802 25.3689C134.092 25.3689 132.382 26.1031 131.771 27.6938L133.847 28.5504C134.336 27.6938 135.069 27.4491 135.924 27.4491C137.146 27.4491 138.245 28.1833 138.367 29.407V29.5293C138.001 29.2846 137.024 28.9175 136.046 28.9175C133.847 28.9175 131.649 30.1412 131.649 32.3438C131.649 34.424 133.481 35.7701 135.435 35.7701C137.024 35.7701 137.756 35.0358 138.367 34.3016H138.489V35.5253H140.688V29.6517C140.444 26.9596 138.367 25.3689 135.802 25.3689ZM135.558 33.8122C134.825 33.8122 133.725 33.4451 133.725 32.4661C133.725 31.2425 135.069 30.8754 136.168 30.8754C137.146 30.8754 137.634 31.1201 138.245 31.3648C138.001 32.8332 136.779 33.8122 135.558 33.8122ZM148.384 25.736L145.819 32.3438H145.697L143.009 25.736H140.566L144.597 35.0358L142.276 40.1753H144.597L150.827 25.736H148.384ZM127.862 35.5253H130.183V20.2295H127.862V35.5253Z" fill="white"/>
<path d="M9.74072 8.01831C9.37363 8.38894 9.12891 9.00664 9.12891 9.74789V37.0506C9.12891 37.7918 9.37363 38.4096 9.74072 38.7802L9.86309 38.9037L25.0361 23.5846V23.461V23.3375L9.74072 8.01831Z" fill="url(#paint0_linear_105_3340)"/>
<path d="M30.053 28.7742L25.0361 23.709V23.4619V23.3384L30.053 18.2732L30.1754 18.3967L36.1712 21.8559C37.8843 22.8442 37.8843 24.4503 36.1712 25.4386L30.053 28.7742Z" fill="url(#paint1_linear_105_3340)"/>
<path d="M30.1749 28.6497L25.0357 23.4609L9.74023 38.9036C10.3521 39.5214 11.2086 39.5213 12.3099 39.0272L30.1749 28.6497Z" fill="url(#paint2_linear_105_3340)"/>
<path d="M30.1749 18.2731L12.3099 8.01915C11.2086 7.40144 10.3521 7.52498 9.74023 8.14269L25.0357 23.4619L30.1749 18.2731Z" fill="url(#paint3_linear_105_3340)"/>
<path opacity="0.2" d="M30.0525 28.5271L12.3099 38.6575C11.331 39.2752 10.4744 39.1517 9.8626 38.6575L9.74023 38.7811L9.8626 38.9046C10.4744 39.3988 11.331 39.5223 12.3099 38.9046L30.0525 28.5271Z" fill="black"/>
<path opacity="0.12" d="M9.74238 38.6573C9.37529 38.2867 9.25293 37.669 9.25293 36.9277V37.0513C9.25293 37.7925 9.49766 38.4102 9.86475 38.7809V38.6573H9.74238Z" fill="black"/>
<path opacity="0.12" d="M36.1729 25.067L30.0547 28.5261L30.177 28.6497L36.1729 25.1905C37.0294 24.6964 37.3965 24.0786 37.3965 23.4609C37.3965 24.0786 36.907 24.5728 36.1729 25.067Z" fill="black"/>
<path opacity="0.25" d="M12.312 8.14235L36.1729 21.8555C36.907 22.3496 37.3965 22.8438 37.3965 23.4615C37.3965 22.8438 37.0294 22.2261 36.1729 21.7319L12.312 8.01881C10.5989 7.03047 9.25293 7.89526 9.25293 9.87193V9.99547C9.25293 8.01881 10.5989 7.15401 12.312 8.14235Z" fill="white"/>
<path d="M48.5284 16.4192H47.6719V13.9483H48.4061C49.0179 13.4542 49.385 12.4658 49.385 11.1069V7.40063H54.2795V13.9483H55.136V16.4192H54.2795V14.8131H48.6508V16.4192H48.5284ZM50.2415 11.1069C50.2415 12.2188 49.9968 13.2071 49.5073 13.9483H53.1782V8.38897H50.1191V11.1069H50.2415Z" fill="white" stroke="white" stroke-width="0.2" stroke-miterlimit="10"/>
<path d="M62.3544 13.8253C61.6202 14.5665 60.7637 14.9372 59.6624 14.9372C58.5611 14.9372 57.7046 14.5665 56.9704 13.8253C56.2362 13.084 55.8691 12.2193 55.8691 11.1074C55.8691 9.9955 56.2362 9.13071 56.9704 8.38946C57.7046 7.64821 58.5611 7.27759 59.6624 7.27759C60.7637 7.27759 61.6202 7.64821 62.3544 8.38946C63.0886 9.13071 63.4557 9.9955 63.4557 11.1074C63.4557 12.2193 63.0886 13.084 62.3544 13.8253ZM57.7046 13.2076C58.194 13.7018 58.9282 14.0724 59.6624 14.0724C60.3966 14.0724 61.1308 13.8253 61.6202 13.2076C62.1097 12.7134 62.4768 11.9722 62.4768 11.1074C62.4768 10.2426 62.232 9.50134 61.6202 9.00717C61.1308 8.513 60.3966 8.14238 59.6624 8.14238C58.9282 8.14238 58.194 8.38946 57.7046 9.00717C57.2151 9.50134 56.8481 10.2426 56.8481 11.1074C56.8481 11.9722 57.0928 12.7134 57.7046 13.2076Z" fill="white" stroke="white" stroke-width="0.2" stroke-miterlimit="10"/>
<path d="M68.2278 14.9372C67.1266 14.9372 66.27 14.5665 65.5358 13.8253C64.8017 13.084 64.4346 12.2193 64.4346 11.1074C64.4346 9.9955 64.8017 9.13071 65.5358 8.38946C66.27 7.64821 67.1266 7.27759 68.2278 7.27759C69.3291 7.27759 70.1856 7.64821 70.9198 8.513L70.308 9.13071C69.8186 8.513 69.0844 8.14238 68.2278 8.14238C67.3713 8.14238 66.7595 8.38946 66.1477 9.00717C65.5358 9.50134 65.2911 10.2426 65.2911 11.1074C65.2911 11.9722 65.5358 12.7134 66.1477 13.2076C66.6371 13.7018 67.3713 14.0724 68.2278 14.0724C69.0844 14.0724 69.8186 13.7018 70.4304 12.9605L71.0422 13.5782C70.6751 13.9488 70.308 14.3195 69.8186 14.5665C69.3291 14.8136 68.8396 14.9372 68.2278 14.9372Z" fill="white" stroke="white" stroke-width="0.2" stroke-miterlimit="10"/>
<path d="M74.9595 14.8131H73.9806V8.26543H71.9004V7.40063H76.9173V8.26543H74.8371V14.8131H74.9595Z" fill="white" stroke="white" stroke-width="0.2" stroke-miterlimit="10"/>
<path d="M80.5855 13.7013C80.2184 14.566 79.6065 15.0602 78.8724 15.0602C78.6276 15.0602 78.3829 15.0602 78.1382 14.9367L78.3829 14.0719C78.5053 14.1954 78.75 14.1954 78.8724 14.1954C79.1171 14.1954 79.2395 14.1954 79.3618 14.0719C79.4842 13.9483 79.6065 13.8248 79.7289 13.5777L79.9736 12.96L77.5264 7.52417H78.6276L80.4631 11.7246L82.1762 7.52417H83.3998L80.5855 13.7013Z" fill="white" stroke="white" stroke-width="0.2" stroke-miterlimit="10"/>
<path d="M84.5049 14.8131V7.40063H89.7665V14.8131H88.7876V8.26543H85.3614V14.8131H84.5049Z" fill="white" stroke="white" stroke-width="0.2" stroke-miterlimit="10"/>
<path d="M91.4785 14.8131V7.40063H92.4574V10.6127H96.1283V7.40063H97.1072V14.8131H96.1283V11.4775H92.4574V14.8131H91.4785Z" fill="white" stroke="white" stroke-width="0.2" stroke-miterlimit="10"/>
<path d="M104.813 13.8253C104.079 14.5665 103.223 14.9372 102.121 14.9372C101.02 14.9372 100.164 14.5665 99.4294 13.8253C98.6952 13.084 98.3281 12.2193 98.3281 11.1074C98.3281 9.9955 98.6952 9.13071 99.4294 8.38946C100.164 7.64821 101.02 7.27759 102.121 7.27759C103.223 7.27759 104.079 7.64821 104.813 8.38946C105.548 9.13071 105.915 9.9955 105.915 11.1074C105.792 12.2193 105.425 13.084 104.813 13.8253ZM100.041 13.2076C100.531 13.7018 101.265 14.0724 101.999 14.0724C102.733 14.0724 103.467 13.8253 103.957 13.2076C104.446 12.7134 104.813 11.9722 104.813 11.1074C104.813 10.2426 104.569 9.50134 103.957 9.00717C103.467 8.513 102.733 8.14238 101.999 8.14238C101.265 8.14238 100.531 8.38946 100.041 9.00717C99.5518 9.50134 99.1847 10.2426 99.1847 11.1074C99.1847 11.9722 99.5518 12.7134 100.041 13.2076Z" fill="white" stroke="white" stroke-width="0.2" stroke-miterlimit="10"/>
<path d="M109.709 14.8131V7.40063H112.401C113.013 7.40063 113.502 7.64772 113.869 8.01834C114.236 8.38897 114.481 8.88314 114.481 9.50084C114.481 9.87147 114.359 10.1186 114.236 10.4892C114.114 10.7363 113.869 10.9833 113.502 11.1069C113.869 11.2304 114.114 11.4775 114.359 11.7246C114.604 11.9717 114.726 12.3423 114.726 12.8365C114.726 13.4542 114.481 13.9483 114.114 14.319C113.625 14.6896 113.135 14.9367 112.523 14.9367H109.709V14.8131ZM110.688 10.6127H112.401C112.768 10.6127 113.013 10.4892 113.258 10.2421C113.502 9.99501 113.625 9.74793 113.625 9.50084C113.625 9.25376 113.502 9.00668 113.258 8.75959C113.013 8.51251 112.768 8.38897 112.401 8.38897H110.688V10.6127ZM110.688 13.9483H112.646C113.013 13.9483 113.258 13.8248 113.502 13.5777C113.747 13.3306 113.869 13.0835 113.869 12.7129C113.869 12.4658 113.747 12.0952 113.502 11.8481C113.258 11.6011 113.013 11.4775 112.646 11.4775H110.81V13.9483H110.688Z" fill="white" stroke="white" stroke-width="0.2" stroke-miterlimit="10"/>
<rect x="0.5" y="0.5" width="161" height="46" rx="4.5" stroke="white"/>
<defs>
<linearGradient id="paint0_linear_105_3340" x1="23.6898" y1="9.51279" x2="2.95748" y2="30.0474" gradientUnits="userSpaceOnUse">
<stop stop-color="#00A0FF"/>
<stop offset="0.00657445" stop-color="#00A1FF"/>
<stop offset="0.2601" stop-color="#00BEFF"/>
<stop offset="0.5122" stop-color="#00D2FF"/>
<stop offset="0.7604" stop-color="#00DFFF"/>
<stop offset="1" stop-color="#00E3FF"/>
</linearGradient>
<linearGradient id="paint1_linear_105_3340" x1="38.4158" y1="23.4637" x2="8.8077" y2="23.4637" gradientUnits="userSpaceOnUse">
<stop stop-color="#FFE000"/>
<stop offset="0.4087" stop-color="#FFBD00"/>
<stop offset="0.7754" stop-color="#FFA500"/>
<stop offset="1" stop-color="#FF9C00"/>
</linearGradient>
<linearGradient id="paint2_linear_105_3340" x1="27.3936" y1="26.2976" x2="-0.721095" y2="54.1441" gradientUnits="userSpaceOnUse">
<stop stop-color="#FF3A44"/>
<stop offset="1" stop-color="#C31162"/>
</linearGradient>
<linearGradient id="paint3_linear_105_3340" x1="5.94367" y1="-1.02879" x2="18.4981" y2="11.4058" gradientUnits="userSpaceOnUse">
<stop stop-color="#32A071"/>
<stop offset="0.0685" stop-color="#2DA771"/>
<stop offset="0.4762" stop-color="#15CF74"/>
<stop offset="0.8009" stop-color="#06E775"/>
<stop offset="1" stop-color="#00F076"/>
</linearGradient>
</defs>
</svg>
