<svg width="29" height="40" viewBox="0 0 29 40" fill="none" xmlns="http://www.w3.org/2000/svg">
<path d="M11.4286 20C11.4286 15.2661 15.2661 11.4286 20 11.4286V14.2857C16.8441 14.2857 14.2857 16.8441 14.2857 20H11.4286Z" fill="white"/>
<path d="M20 5.71429C12.1102 5.71428 5.71429 12.1102 5.71428 20H8.57143C8.57143 13.6882 13.6882 8.57143 20 8.57143V5.71429Z" fill="#0071E3"/>
<path d="M20 0C8.95431 -7.70685e-07 7.70685e-07 8.9543 0 20H2.85714C2.85714 10.5323 10.5323 2.85714 20 2.85714L20 0Z" fill="#0071E3"/>
<path d="M17.1408 20C17.1408 24.7339 13.3033 28.5714 8.56941 28.5714L8.56941 25.7143C11.7253 25.7143 14.2837 23.1559 14.2837 20L17.1408 20Z" fill="white"/>
<path d="M8.5694 34.2857C16.4592 34.2857 22.8551 27.8898 22.8551 20L19.998 20C19.998 26.3118 14.8812 31.4286 8.5694 31.4286L8.5694 34.2857Z" fill="#0071E3"/>
<path d="M8.5694 40C19.6151 40 28.5694 31.0457 28.5694 20L25.7123 20C25.7123 29.4677 18.0371 37.1429 8.5694 37.1429L8.5694 40Z" fill="#0071E3"/>
</svg>
